<svg width="68" height="68" viewBox="0 0 68 68" fill="none" xmlns="http://www.w3.org/2000/svg">
<circle cx="34" cy="34" r="29" fill="#FFDF20" stroke="#EEEEEE" stroke-width="10"/>
<circle cx="34" cy="34" r="28" fill="#A684FF" stroke="#171717" stroke-width="8"/>
<path d="M27 28.1267C27 27.2707 27.917 26.7287 28.667 27.1407L40.207 33.4877C40.3836 33.5848 40.531 33.7275 40.6336 33.9009C40.7362 34.0744 40.7903 34.2722 40.7903 34.4737C40.7903 34.6752 40.7362 34.8731 40.6336 35.0465C40.531 35.22 40.3836 35.3627 40.207 35.4597L28.667 41.8067C28.4957 41.9009 28.3028 41.9488 28.1073 41.9457C27.9118 41.9427 27.7205 41.8887 27.5523 41.7892C27.384 41.6897 27.2446 41.548 27.1477 41.3782C27.0509 41.2083 27 41.0162 27 40.8207V28.1267Z" fill="#171717" stroke="#171717" stroke-width="1.5" stroke-linecap="round" stroke-linejoin="round"/>
</svg>
