<svg width="62" height="48" viewBox="0 0 62 48" fill="none" xmlns="http://www.w3.org/2000/svg">
<path d="M32.2468 36.5806C32.2468 29.871 34.7721 23.2258 39.8228 16.6452C44.8735 9.93548 51.8668 4.38709 60.8026 0L61.7739 2.70968C55.6872 6.32258 50.8307 10.3871 47.2046 14.9032C43.5785 19.2903 41.5711 23.6774 41.1826 28.0645C42.7367 26.6452 44.3555 25.4839 46.0391 24.5806C47.8521 23.6774 49.6004 23.2258 51.284 23.2258C53.0971 23.2258 54.4569 23.871 55.3634 25.1613C56.2699 26.3226 56.7232 27.9355 56.7232 30C56.7232 32.7097 55.9462 35.4839 54.3921 38.3226C52.8381 41.0323 50.8307 43.3548 48.3701 45.2903C46.039 47.0968 43.5137 48 40.7941 48C37.8155 48 35.6139 46.9677 34.1893 44.9032C32.8943 42.8387 32.2468 40.0645 32.2468 36.5806ZM0 36.5806C0 29.871 2.52535 23.2258 7.57604 16.6452C12.6267 9.93548 19.62 4.38709 28.5559 0L29.5272 2.70968C23.4404 6.32258 18.584 10.3871 14.9578 14.9032C11.3317 19.2903 9.32436 23.6774 8.93585 28.0645C10.4899 26.6452 12.1087 25.4839 13.7923 24.5806C15.6054 23.6774 17.3537 23.2258 19.0372 23.2258C20.8503 23.2258 22.2101 23.871 23.1167 25.1613C24.0232 26.3226 24.4765 27.9355 24.4765 30C24.4765 32.7097 23.6994 35.4839 22.1454 38.3226C20.5913 41.0323 18.584 43.3548 16.1234 45.2903C13.7923 47.0968 11.2669 48 8.54733 48C5.56872 48 3.36713 46.9677 1.94258 44.9032C0.647525 42.8387 0 40.0645 0 36.5806Z" fill="currentColor"/>
</svg>
