<svg width="68" height="68" viewBox="0 0 68 68" fill="none" xmlns="http://www.w3.org/2000/svg">
<circle cx="34" cy="34" r="29" fill="#FFDF20" stroke="#EEEEEE" stroke-width="10"/>
<circle cx="34" cy="34" r="28" fill="#FFDF20" stroke="white" stroke-width="8"/>
<path d="M27.25 27.653C27.25 26.797 28.167 26.255 28.917 26.667L40.457 33.014C40.6336 33.1111 40.781 33.2538 40.8836 33.4272C40.9862 33.6007 41.0403 33.7985 41.0403 34C41.0403 34.2015 40.9862 34.3994 40.8836 34.5728C40.781 34.7463 40.6336 34.889 40.457 34.986L28.917 41.333C28.7457 41.4272 28.5528 41.4751 28.3573 41.472C28.1618 41.469 27.9705 41.415 27.8023 41.3155C27.634 41.216 27.4946 41.0743 27.3977 40.9045C27.3009 40.7346 27.25 40.5425 27.25 40.347V27.653Z" fill="white" stroke="white" stroke-width="1.5" stroke-linecap="round" stroke-linejoin="round"/>
</svg>
