<svg width="200" height="200" viewBox="0 0 200 200" fill="none" xmlns="http://www.w3.org/2000/svg">
<path d="M52.8714 52.7606C43.5086 62.1036 37.1325 74.0075 34.5494 86.9667C31.9662 99.9259 33.292 113.359 38.359 125.566C43.4261 137.773 52.0069 148.207 63.0164 155.548C74.0258 162.889 86.9694 166.807 100.21 166.807C113.451 166.807 126.395 162.889 137.404 155.548C148.414 148.207 156.995 137.773 162.062 125.566C167.129 113.359 168.455 99.9259 165.871 86.9667C163.288 74.0075 156.912 62.1036 147.549 52.7606L100.21 100L52.8714 52.7606Z" fill="#FFDF20"/>
<rect width="23.1917" height="23.1917" transform="matrix(0.70785 0.706363 -0.70785 0.706363 100.21 33.1932)" fill="#FFDF20"/>
</svg>
