<svg width="650" height="650" viewBox="0 0 650 650" fill="none" xmlns="http://www.w3.org/2000/svg">
<g clip-path="url(#clip0_250_771)">
<g clip-path="url(#clip1_250_771)">
<rect x="105" y="75" width="440" height="480" rx="16" fill="#4074BC" fill-opacity="0.03"/>
<rect x="-165" y="421" width="512" height="260" rx="16" fill="white"/>
<path opacity="0.3" d="M-7.83096 682.07L-12.8281 692.828H346.999V586.363L342.002 587.377C337.004 588.394 327.008 590.425 317.014 599.573C307.018 608.72 297.023 624.986 287.027 631.543C277.033 638.1 267.036 634.951 257.042 615.162C247.048 595.375 237.051 558.948 227.057 553.161C217.061 547.374 207.067 572.226 197.07 573.982C187.076 575.736 177.08 554.391 167.085 560.881C157.091 567.371 147.095 601.693 137.1 611.263C127.104 620.831 117.11 605.649 107.114 610.866C97.1192 616.082 87.1229 641.698 77.1286 652.993C67.1343 664.291 57.138 661.266 47.1437 654.759C37.1474 648.254 27.1531 638.266 17.1568 644.03C7.16246 649.796 -2.83379 671.312 -7.83096 682.07Z" fill="#E2E8F0"/>
<path d="M-12.8281 692.828L-7.83096 682.07C-2.83379 671.312 7.16246 649.796 17.1568 644.03C27.1531 638.266 37.1474 648.254 47.1437 654.759C57.138 661.266 67.1343 664.291 77.1286 652.993C87.1229 641.698 97.1192 616.082 107.114 610.866C117.11 605.649 127.104 620.831 137.1 611.263C147.095 601.693 157.091 567.371 167.085 560.881C177.08 554.391 187.076 575.736 197.07 573.982C207.067 572.226 217.061 547.374 227.057 553.161C237.051 558.948 247.048 595.375 257.042 615.162C267.036 634.951 277.033 638.1 287.027 631.543C297.023 624.986 307.018 608.72 317.014 599.573C327.008 590.425 337.004 588.394 342.002 587.377L346.999 586.363" stroke="#E2E8F0" stroke-width="2" stroke-linecap="round"/>
<path d="M265.078 454.77H211.77C207.086 454.77 203.289 458.567 203.289 463.25C203.289 467.934 207.086 471.731 211.77 471.731H265.078C269.761 471.731 273.558 467.934 273.558 463.25C273.558 458.567 269.761 454.77 265.078 454.77Z" fill="#F1F5F9"/>
<path d="M308.692 454.77H291.731C287.047 454.77 283.25 458.567 283.25 463.25C283.25 467.934 287.047 471.731 291.731 471.731H308.692C313.376 471.731 317.173 467.934 317.173 463.25C317.173 458.567 313.376 454.77 308.692 454.77Z" fill="#F1F5F9"/>
<rect x="383" y="421" width="394" height="255" rx="16" fill="white"/>
<path d="M436 453H422C418.134 453 415 456.134 415 460C415 463.866 418.134 467 422 467H436C439.866 467 443 463.866 443 460C443 456.134 439.866 453 436 453Z" fill="#F1F5F9"/>
<path d="M529 453H458C454.134 453 451 456.134 451 460C451 463.866 454.134 467 458 467H529C532.866 467 536 463.866 536 460C536 456.134 532.866 453 529 453Z" fill="#F1F5F9"/>
<path d="M496 509H419C416.791 509 415 510.791 415 513C415 515.209 416.791 517 419 517H496C498.209 517 500 515.209 500 513C500 510.791 498.209 509 496 509Z" fill="#F1F5F9"/>
<path d="M449 554.5H419C416.791 554.5 415 556.291 415 558.5C415 560.709 416.791 562.5 419 562.5H449C451.209 562.5 453 560.709 453 558.5C453 556.291 451.209 554.5 449 554.5Z" fill="#F1F5F9"/>
</g>
<rect x="105.5" y="75.5" width="439" height="479" rx="15.5" stroke="#94A3B8" stroke-opacity="0.1"/>
<g filter="url(#filter0_d_250_771)">
<rect x="36" y="130" width="360" height="254" rx="16" fill="white"/>
</g>
<path d="M95 167H75C71.134 167 68 170.134 68 174C68 177.866 71.134 181 75 181H95C98.866 181 102 177.866 102 174C102 170.134 98.866 167 95 167Z" fill="#ECEFF1"/>
<path d="M171 167H117C113.134 167 110 170.134 110 174C110 177.866 113.134 181 117 181H171C174.866 181 178 177.866 178 174C178 170.134 174.866 167 171 167Z" fill="#ECEFF1"/>
<path d="M358 175H353V180C353 180.55 352.55 181 352 181C351.45 181 351 180.55 351 180V175H346C345.45 175 345 174.55 345 174C345 173.45 345.45 173 346 173H351V168C351 167.45 351.45 167 352 167C352.55 167 353 167.45 353 168V173H358C358.55 173 359 173.45 359 174C359 174.55 358.55 175 358 175Z" fill="#CFD8DC"/>
<path d="M78 228C78 225.239 75.7614 223 73 223C70.2386 223 68 225.239 68 228C68 230.761 70.2386 233 73 233C75.7614 233 78 230.761 78 228Z" fill="#EC4899"/>
<path d="M140 223H99C96.2386 223 94 225.239 94 228C94 230.761 96.2386 233 99 233H140C142.761 233 145 230.761 145 228C145 225.239 142.761 223 140 223Z" fill="#ECEFF1"/>
<path d="M173 223H158C155.239 223 153 225.239 153 228C153 230.761 155.239 233 158 233H173C175.761 233 178 230.761 178 228C178 225.239 175.761 223 173 223Z" fill="#ECEFF1"/>
<path d="M354 218H340C334.477 218 330 222.477 330 228C330 233.523 334.477 238 340 238H354C359.523 238 364 233.523 364 228C364 222.477 359.523 218 354 218Z" fill="#EC4899"/>
<path d="M353.873 235C357.669 235 360.746 231.866 360.746 228C360.746 224.134 357.669 221 353.873 221C350.077 221 347 224.134 347 228C347 231.866 350.077 235 353.873 235Z" fill="white"/>
<path d="M78 267C78 264.239 75.7614 262 73 262C70.2386 262 68 264.239 68 267C68 269.761 70.2386 272 73 272C75.7614 272 78 269.761 78 267Z" fill="#CFD8DC"/>
<path d="M127 262H99C96.2386 262 94 264.239 94 267C94 269.761 96.2386 272 99 272H127C129.761 272 132 269.761 132 267C132 264.239 129.761 262 127 262Z" fill="#ECEFF1"/>
<path d="M180 262H145C142.239 262 140 264.239 140 267C140 269.761 142.239 272 145 272H180C182.761 272 185 269.761 185 267C185 264.239 182.761 262 180 262Z" fill="#ECEFF1"/>
<path d="M208 262H198C195.239 262 193 264.239 193 267C193 269.761 195.239 272 198 272H208C210.761 272 213 269.761 213 267C213 264.239 210.761 262 208 262Z" fill="#ECEFF1"/>
<path d="M354 257H340C334.477 257 330 261.477 330 267C330 272.523 334.477 277 340 277H354C359.523 277 364 272.523 364 267C364 261.477 359.523 257 354 257Z" fill="#EC4899"/>
<path d="M353.873 274C357.669 274 360.746 270.866 360.746 267C360.746 263.134 357.669 260 353.873 260C350.077 260 347 263.134 347 267C347 270.866 350.077 274 353.873 274Z" fill="white"/>
<path d="M78 306C78 303.239 75.7614 301 73 301C70.2386 301 68 303.239 68 306C68 308.761 70.2386 311 73 311C75.7614 311 78 308.761 78 306Z" fill="#CFD8DC"/>
<path d="M116 301H99C96.2386 301 94 303.239 94 306C94 308.761 96.2386 311 99 311H116C118.761 311 121 308.761 121 306C121 303.239 118.761 301 116 301Z" fill="#ECEFF1"/>
<path d="M138 301H134C131.239 301 129 303.239 129 306C129 308.761 131.239 311 134 311H138C140.761 311 143 308.761 143 306C143 303.239 140.761 301 138 301Z" fill="#ECEFF1"/>
<path d="M173 301H156C153.239 301 151 303.239 151 306C151 308.761 153.239 311 156 311H173C175.761 311 178 308.761 178 306C178 303.239 175.761 301 173 301Z" fill="#ECEFF1"/>
<path d="M340 296H354C359.523 296 364 300.477 364 306C364 311.523 359.523 316 354 316H340C334.477 316 330 311.523 330 306C330 300.477 334.477 296 340 296Z" fill="#CFD8DC"/>
<path d="M340.127 313C336.331 313 333.254 309.866 333.254 306C333.254 302.134 336.331 299 340.127 299C343.923 299 347 302.134 347 306C347 309.866 343.923 313 340.127 313Z" fill="white"/>
<path d="M78 345C78 342.239 75.7614 340 73 340C70.2386 340 68 342.239 68 345C68 347.761 70.2386 350 73 350C75.7614 350 78 347.761 78 345Z" fill="#CFD8DC"/>
<path d="M129 340H99C96.2386 340 94 342.239 94 345C94 347.761 96.2386 350 99 350H129C131.761 350 134 347.761 134 345C134 342.239 131.761 340 129 340Z" fill="#ECEFF1"/>
<path d="M340 335H354C359.523 335 364 339.477 364 345C364 350.523 359.523 355 354 355H340C334.477 355 330 350.523 330 345C330 339.477 334.477 335 340 335Z" fill="#CFD8DC"/>
<path d="M340.127 352C336.331 352 333.254 348.866 333.254 345C333.254 341.134 336.331 338 340.127 338C343.923 338 347 341.134 347 345C347 348.866 343.923 352 340.127 352Z" fill="white"/>
</g>
<defs>
<filter id="filter0_d_250_771" x="-2" y="102" width="436" height="330" filterUnits="userSpaceOnUse" color-interpolation-filters="sRGB">
<feFlood flood-opacity="0" result="BackgroundImageFix"/>
<feColorMatrix in="SourceAlpha" type="matrix" values="0 0 0 0 0 0 0 0 0 0 0 0 0 0 0 0 0 0 127 0" result="hardAlpha"/>
<feOffset dy="10"/>
<feGaussianBlur stdDeviation="19"/>
<feColorMatrix type="matrix" values="0 0 0 0 0.0941176 0 0 0 0 0.152941 0 0 0 0 0.294118 0 0 0 0.06 0"/>
<feBlend mode="normal" in2="BackgroundImageFix" result="effect1_dropShadow_250_771"/>
<feBlend mode="normal" in="SourceGraphic" in2="effect1_dropShadow_250_771" result="shape"/>
</filter>
<clipPath id="clip0_250_771">
<rect width="650" height="650" fill="white"/>
</clipPath>
<clipPath id="clip1_250_771">
<rect x="105" y="75" width="440" height="480" rx="16" fill="white"/>
</clipPath>
</defs>
</svg>
