<svg width="650" height="650" viewBox="0 0 650 650" fill="none" xmlns="http://www.w3.org/2000/svg">
<g clip-path="url(#clip0_250_326)">
<g clip-path="url(#clip1_250_326)">
<rect x="105" y="75" width="440" height="480" rx="16" fill="#4074BC" fill-opacity="0.03"/>
<rect x="158" y="337" width="423" height="183" rx="16" fill="white"/>
<path d="M224 369H197C193.134 369 190 372.134 190 376C190 379.866 193.134 383 197 383H224C227.866 383 231 379.866 231 376C231 372.134 227.866 369 224 369Z" fill="#ECEFF1"/>
<path d="M294 369H246C242.134 369 239 372.134 239 376C239 379.866 242.134 383 246 383H294C297.866 383 301 379.866 301 376C301 372.134 297.866 369 294 369Z" fill="#ECEFF1"/>
<path d="M236.706 421.699C241.661 423.396 246.114 426.301 249.663 430.152C253.212 434.003 255.745 438.678 257.033 443.754C258.321 448.83 258.322 454.147 257.038 459.224C255.754 464.301 253.225 468.978 249.678 472.831C246.132 476.684 241.681 479.593 236.728 481.293C231.775 482.994 226.476 483.432 221.311 482.57C216.145 481.707 211.277 479.57 207.145 476.352C203.013 473.135 199.749 468.937 197.648 464.141" stroke="#94A3B8" stroke-width="10" stroke-linecap="round"/>
<path d="M195.38 446.623C196.306 440.709 198.899 435.182 202.854 430.688C206.808 426.194 211.962 422.921 217.71 421.25" stroke="#E2E8F0" stroke-width="10" stroke-linecap="round"/>
<path d="M315 434C315 430.686 312.314 428 309 428C305.686 428 303 430.686 303 434C303 437.314 305.686 440 309 440C312.314 440 315 437.314 315 434Z" fill="#94A3B8"/>
<path d="M347 430H331C328.791 430 327 431.791 327 434C327 436.209 328.791 438 331 438H347C349.209 438 351 436.209 351 434C351 431.791 349.209 430 347 430Z" fill="#ECEFF1"/>
<path d="M449 430H361C358.791 430 357 431.791 357 434C357 436.209 358.791 438 361 438H449C451.209 438 453 436.209 453 434C453 431.791 451.209 430 449 430Z" fill="#ECEFF1"/>
<path d="M564 430H476C473.791 430 472 431.791 472 434C472 436.209 473.791 438 476 438H564C566.209 438 568 436.209 568 434C568 431.791 566.209 430 564 430Z" fill="#ECEFF1"/>
<path d="M315 469C315 465.686 312.314 463 309 463C305.686 463 303 465.686 303 469C303 472.314 305.686 475 309 475C312.314 475 315 472.314 315 469Z" fill="#F0F3F7"/>
<path d="M336 465H331C328.791 465 327 466.791 327 469C327 471.209 328.791 473 331 473H336C338.209 473 340 471.209 340 469C340 466.791 338.209 465 336 465Z" fill="#ECEFF1"/>
<path d="M453 465H350C347.791 465 346 466.791 346 469C346 471.209 347.791 473 350 473H453C455.209 473 457 471.209 457 469C457 466.791 455.209 465 453 465Z" fill="#ECEFF1"/>
<path d="M513 465H480C477.791 465 476 466.791 476 469C476 471.209 477.791 473 480 473H513C515.209 473 517 471.209 517 469C517 466.791 515.209 465 513 465Z" fill="#ECEFF1"/>
</g>
<rect x="105.5" y="75.5" width="439" height="479" rx="15.5" stroke="#94A3B8" stroke-opacity="0.1"/>
<g filter="url(#filter0_d_250_326)">
<rect x="268" y="36" width="356" height="266" rx="16" fill="white"/>
<path d="M320.965 265.695V118.305" stroke="#ECEFF1" stroke-width="0.61" stroke-linecap="round"/>
<path d="M345.887 265.695V118.305" stroke="#ECEFF1" stroke-width="0.61" stroke-linecap="round"/>
<path d="M370.809 265.695V118.305" stroke="#ECEFF1" stroke-width="0.61" stroke-linecap="round"/>
<path d="M395.734 265.695V118.305" stroke="#ECEFF1" stroke-width="0.61" stroke-linecap="round"/>
<path d="M420.656 265.695V118.305" stroke="#ECEFF1" stroke-width="0.61" stroke-linecap="round"/>
<path d="M445.578 265.695V118.305" stroke="#ECEFF1" stroke-width="0.61" stroke-linecap="round"/>
<path d="M470.504 265.695V118.305" stroke="#ECEFF1" stroke-width="0.61" stroke-linecap="round"/>
<path d="M495.426 265.695V118.305" stroke="#ECEFF1" stroke-width="0.61" stroke-linecap="round"/>
<path d="M520.348 265.695V118.305" stroke="#ECEFF1" stroke-width="0.61" stroke-linecap="round"/>
<path d="M545.273 265.695V118.305" stroke="#ECEFF1" stroke-width="0.61" stroke-linecap="round"/>
<path d="M570.195 265.695V118.305" stroke="#ECEFF1" stroke-width="0.61" stroke-linecap="round"/>
<path d="M343.27 72H323.27C319.404 72 316.27 75.134 316.27 79C316.27 82.866 319.404 86 323.27 86H343.27C347.136 86 350.27 82.866 350.27 79C350.27 75.134 347.136 72 343.27 72Z" fill="#ECEFF1"/>
<path d="M419.27 72H365.27C361.404 72 358.27 75.134 358.27 79C358.27 82.866 361.404 86 365.27 86H419.27C423.136 86 426.27 82.866 426.27 79C426.27 75.134 423.136 72 419.27 72Z" fill="#ECEFF1"/>
<path d="M326.27 249C326.27 246.239 324.031 244 321.27 244C318.508 244 316.27 246.239 316.27 249V261C316.27 263.761 318.508 266 321.27 266C324.031 266 326.27 263.761 326.27 261V249Z" fill="#EC4899"/>
<path d="M351.191 241C351.191 238.239 348.953 236 346.191 236C343.43 236 341.191 238.239 341.191 241V249C341.191 251.761 343.43 254 346.191 254C348.953 254 351.191 251.761 351.191 249V241Z" fill="#EC4899"/>
<path d="M376.117 206C376.117 203.239 373.879 201 371.117 201C368.356 201 366.117 203.239 366.117 206V227C366.117 229.761 368.356 232 371.117 232C373.879 232 376.117 229.761 376.117 227V206Z" fill="#EC4899"/>
<path d="M401.039 227C401.039 224.239 398.8 222 396.039 222C393.278 222 391.039 224.239 391.039 227V235C391.039 237.761 393.278 240 396.039 240C398.8 240 401.039 237.761 401.039 235V227Z" fill="#EC4899"/>
<path d="M425.961 219C425.961 216.239 423.722 214 420.961 214C418.2 214 415.961 216.239 415.961 219V247C415.961 249.761 418.2 252 420.961 252C423.722 252 425.961 249.761 425.961 247V219Z" fill="#EC4899"/>
<path d="M450.5 233C450.5 230.239 448.261 228 445.5 228C442.739 228 440.5 230.239 440.5 233V243C440.5 245.761 442.739 248 445.5 248C448.261 248 450.5 245.761 450.5 243V233Z" fill="#EC4899"/>
<path d="M475.344 229C475.344 226.239 473.105 224 470.344 224C467.582 224 465.344 226.239 465.344 229V255C465.344 257.761 467.582 260 470.344 260C473.105 260 475.344 257.761 475.344 255V229Z" fill="#EC4899"/>
<path d="M501.195 157C501.195 154.239 498.957 152 496.195 152C493.434 152 491.195 154.239 491.195 157V235C491.195 237.761 493.434 240 496.195 240C498.957 240 501.195 237.761 501.195 235V157Z" fill="#EC4899"/>
<path d="M526.039 185C526.039 182.239 523.8 180 521.039 180C518.278 180 516.039 182.239 516.039 185V198C516.039 200.761 518.278 203 521.039 203C523.8 203 526.039 200.761 526.039 198V185Z" fill="#EC4899"/>
<path d="M550.883 158C550.883 155.239 548.644 153 545.883 153C543.121 153 540.883 155.239 540.883 158V177C540.883 179.761 543.121 182 545.883 182C548.644 182 550.883 179.761 550.883 177V158Z" fill="#EC4899"/>
<path d="M575.73 170C575.73 167.239 573.492 165 570.73 165C567.969 165 565.73 167.239 565.73 170V208C565.73 210.761 567.969 213 570.73 213C573.492 213 575.73 210.761 575.73 208V170Z" fill="#EC4899"/>
</g>
</g>
<defs>
<filter id="filter0_d_250_326" x="230" y="8" width="432" height="342" filterUnits="userSpaceOnUse" color-interpolation-filters="sRGB">
<feFlood flood-opacity="0" result="BackgroundImageFix"/>
<feColorMatrix in="SourceAlpha" type="matrix" values="0 0 0 0 0 0 0 0 0 0 0 0 0 0 0 0 0 0 127 0" result="hardAlpha"/>
<feOffset dy="10"/>
<feGaussianBlur stdDeviation="19"/>
<feColorMatrix type="matrix" values="0 0 0 0 0.0941176 0 0 0 0 0.152941 0 0 0 0 0.294118 0 0 0 0.06 0"/>
<feBlend mode="normal" in2="BackgroundImageFix" result="effect1_dropShadow_250_326"/>
<feBlend mode="normal" in="SourceGraphic" in2="effect1_dropShadow_250_326" result="shape"/>
</filter>
<clipPath id="clip0_250_326">
<rect width="650" height="650" fill="white"/>
</clipPath>
<clipPath id="clip1_250_326">
<rect x="105" y="75" width="440" height="480" rx="16" fill="white"/>
</clipPath>
</defs>
</svg>
