<svg width="1200" height="800" viewBox="0 0 1200 800" fill="none" xmlns="http://www.w3.org/2000/svg">
<g clip-path="url(#clip0_206_1228)">
<rect width="1200" height="800" rx="16" fill="#4074BC" fill-opacity="0.03"/>
<g clip-path="url(#clip1_206_1228)">
<path d="M1360 80H80V880H1360V80Z" fill="#F7F8FA"/>
<path d="M1360 80H176V176H1360V80Z" fill="#F7F8FA"/>
<path d="M306 117H227C220.925 117 216 121.925 216 128C216 134.075 220.925 139 227 139H306C312.075 139 317 134.075 317 128C317 121.925 312.075 117 306 117Z" fill="#E8EBED"/>
<path d="M373 117H336C329.925 117 325 121.925 325 128C325 134.075 329.925 139 336 139H373C379.075 139 384 134.075 384 128C384 121.925 379.075 117 373 117Z" fill="#E8EBED"/>
<g filter="url(#filter0_dd_206_1228)">
<path d="M541.333 208H232C223.163 208 216 215.163 216 224V320C216 328.837 223.163 336 232 336H541.333C550.17 336 557.333 328.837 557.333 320V224C557.333 215.163 550.17 208 541.333 208Z" fill="white"/>
<path d="M258.836 252.174C262.21 248.572 266.446 245.892 271.145 244.385" stroke="#ECEFF1" stroke-width="6" stroke-linecap="round"/>
<path d="M281.645 243.047C287.78 243.395 293.645 245.683 298.395 249.581C303.145 253.478 306.535 258.784 308.074 264.732C309.614 270.68 309.225 276.964 306.963 282.677C304.701 288.389 300.683 293.236 295.488 296.518C290.293 299.799 284.191 301.346 278.06 300.935C271.93 300.524 266.088 298.176 261.378 294.231C256.668 290.285 253.332 284.946 251.853 278.982C250.374 273.018 250.827 266.739 253.147 261.05" stroke="#EC4899" stroke-width="6" stroke-linecap="round"/>
<path d="M375 244H340C337.791 244 336 245.791 336 248C336 250.209 337.791 252 340 252H375C377.209 252 379 250.209 379 248C379 245.791 377.209 244 375 244Z" fill="#ECEFF1"/>
<path d="M401 244H389C386.791 244 385 245.791 385 248C385 250.209 386.791 252 389 252H401C403.209 252 405 250.209 405 248C405 245.791 403.209 244 401 244Z" fill="#ECEFF1"/>
<path d="M348.797 285.062C348.797 284.177 348.516 283.448 347.953 282.875C347.391 282.292 346.453 281.771 345.141 281.312C343.828 280.844 342.807 280.411 342.078 280.016C339.651 278.714 338.438 276.786 338.438 274.234C338.438 272.505 338.964 271.083 340.016 269.969C341.068 268.854 342.495 268.193 344.297 267.984V264.578H346.797V268.016C348.609 268.276 350.01 269.047 351 270.328C351.99 271.599 352.484 273.255 352.484 275.297H348.703C348.703 273.984 348.406 272.953 347.812 272.203C347.229 271.443 346.432 271.062 345.422 271.062C344.422 271.062 343.641 271.333 343.078 271.875C342.516 272.417 342.234 273.193 342.234 274.203C342.234 275.109 342.51 275.839 343.062 276.391C343.625 276.932 344.573 277.448 345.906 277.938C347.24 278.427 348.286 278.88 349.047 279.297C349.807 279.714 350.448 280.193 350.969 280.734C351.49 281.266 351.891 281.88 352.172 282.578C352.453 283.276 352.594 284.094 352.594 285.031C352.594 286.792 352.052 288.219 350.969 289.312C349.896 290.406 348.396 291.052 346.469 291.25V294.297H343.984V291.266C341.922 291.036 340.333 290.297 339.219 289.047C338.115 287.797 337.562 286.141 337.562 284.078H341.359C341.359 285.391 341.688 286.406 342.344 287.125C343.01 287.844 343.948 288.203 345.156 288.203C346.344 288.203 347.245 287.917 347.859 287.344C348.484 286.771 348.797 286.01 348.797 285.062ZM366.172 291H362.391V272.734L356.812 274.641V271.438L365.688 268.172H366.172V291ZM384.359 291H380.578V272.734L375 274.641V271.438L383.875 268.172H384.359V291ZM393.047 296.125L391 294.906C391.604 293.958 392.016 293.13 392.234 292.422C392.464 291.724 392.583 291.01 392.594 290.281V287.328H396.016L396 290.062C395.99 291.167 395.708 292.271 395.156 293.375C394.615 294.49 393.911 295.406 393.047 296.125ZM414.125 281.422C414.125 284.693 413.51 287.161 412.281 288.828C411.062 290.484 409.203 291.312 406.703 291.312C404.245 291.312 402.391 290.505 401.141 288.891C399.901 287.266 399.266 284.865 399.234 281.688V277.75C399.234 274.479 399.844 272.026 401.062 270.391C402.292 268.755 404.161 267.938 406.672 267.938C409.161 267.938 411.016 268.734 412.234 270.328C413.464 271.922 414.094 274.307 414.125 277.484V281.422ZM410.328 277.172C410.328 275.036 410.036 273.474 409.453 272.484C408.87 271.484 407.943 270.984 406.672 270.984C405.432 270.984 404.521 271.458 403.938 272.406C403.354 273.344 403.047 274.812 403.016 276.812V281.969C403.016 284.094 403.312 285.677 403.906 286.719C404.5 287.76 405.432 288.281 406.703 288.281C407.922 288.281 408.823 287.802 409.406 286.844C409.99 285.875 410.297 284.365 410.328 282.312V277.172ZM432.312 281.422C432.312 284.693 431.698 287.161 430.469 288.828C429.25 290.484 427.391 291.312 424.891 291.312C422.432 291.312 420.578 290.505 419.328 288.891C418.089 287.266 417.453 284.865 417.422 281.688V277.75C417.422 274.479 418.031 272.026 419.25 270.391C420.479 268.755 422.349 267.938 424.859 267.938C427.349 267.938 429.203 268.734 430.422 270.328C431.651 271.922 432.281 274.307 432.312 277.484V281.422ZM428.516 277.172C428.516 275.036 428.224 273.474 427.641 272.484C427.057 271.484 426.13 270.984 424.859 270.984C423.62 270.984 422.708 271.458 422.125 272.406C421.542 273.344 421.234 274.812 421.203 276.812V281.969C421.203 284.094 421.5 285.677 422.094 286.719C422.688 287.76 423.62 288.281 424.891 288.281C426.109 288.281 427.01 287.802 427.594 286.844C428.177 285.875 428.484 284.365 428.516 282.312V277.172ZM450.5 281.422C450.5 284.693 449.885 287.161 448.656 288.828C447.438 290.484 445.578 291.312 443.078 291.312C440.62 291.312 438.766 290.505 437.516 288.891C436.276 287.266 435.641 284.865 435.609 281.688V277.75C435.609 274.479 436.219 272.026 437.438 270.391C438.667 268.755 440.536 267.938 443.047 267.938C445.536 267.938 447.391 268.734 448.609 270.328C449.839 271.922 450.469 274.307 450.5 277.484V281.422ZM446.703 277.172C446.703 275.036 446.411 273.474 445.828 272.484C445.245 271.484 444.318 270.984 443.047 270.984C441.807 270.984 440.896 271.458 440.312 272.406C439.729 273.344 439.422 274.812 439.391 276.812V281.969C439.391 284.094 439.688 285.677 440.281 286.719C440.875 287.76 441.807 288.281 443.078 288.281C444.297 288.281 445.198 287.802 445.781 286.844C446.365 285.875 446.672 284.365 446.703 282.312V277.172Z" fill="#2B2E4A"/>
<path d="M507.666 242C506.566 242 505.666 242.9 505.666 244C505.666 245.1 506.566 246 507.666 246C508.766 246 509.666 245.1 509.666 244C509.666 242.9 508.766 242 507.666 242ZM519.666 242C518.566 242 517.666 242.9 517.666 244C517.666 245.1 518.566 246 519.666 246C520.766 246 521.666 245.1 521.666 244C521.666 242.9 520.766 242 519.666 242ZM513.666 242C512.566 242 511.666 242.9 511.666 244C511.666 245.1 512.566 246 513.666 246C514.766 246 515.666 245.1 515.666 244C515.666 242.9 514.766 242 513.666 242Z" fill="#CFD8DC"/>
</g>
<g filter="url(#filter1_dd_206_1228)">
<path d="M922.666 208H613.333C604.496 208 597.333 215.163 597.333 224V320C597.333 328.837 604.496 336 613.333 336H922.666C931.503 336 938.666 328.837 938.666 320V224C938.666 215.163 931.503 208 922.666 208Z" fill="white"/>
<path d="M641.908 293.533C637.448 289.51 634.347 284.201 633.034 278.339C631.721 272.478 632.261 266.354 634.578 260.812" stroke="#ECEFF1" stroke-width="6" stroke-linecap="round"/>
<path d="M640.611 251.712C644.279 247.966 648.894 245.284 653.965 243.952C659.036 242.619 664.373 242.687 669.409 244.147C674.445 245.607 678.99 248.405 682.562 252.243C686.134 256.082 688.599 260.816 689.694 265.944C690.789 271.071 690.473 276.4 688.78 281.362C687.088 286.324 684.081 290.735 680.081 294.125C676.081 297.514 671.237 299.756 666.064 300.611C660.892 301.467 655.584 300.904 650.705 298.982" stroke="#EC4899" stroke-width="6" stroke-linecap="round"/>
<path d="M745.333 244H721.333C719.124 244 717.333 245.791 717.333 248C717.333 250.209 719.124 252 721.333 252H745.333C747.542 252 749.333 250.209 749.333 248C749.333 245.791 747.542 244 745.333 244Z" fill="#ECEFF1"/>
<path d="M730.13 285.062C730.13 284.177 729.849 283.448 729.286 282.875C728.724 282.292 727.786 281.771 726.474 281.312C725.161 280.844 724.14 280.411 723.411 280.016C720.984 278.714 719.771 276.786 719.771 274.234C719.771 272.505 720.297 271.083 721.349 269.969C722.401 268.854 723.828 268.193 725.63 267.984V264.578H728.13V268.016C729.942 268.276 731.343 269.047 732.333 270.328C733.323 271.599 733.817 273.255 733.817 275.297H730.036C730.036 273.984 729.739 272.953 729.146 272.203C728.562 271.443 727.765 271.062 726.755 271.062C725.755 271.062 724.974 271.333 724.411 271.875C723.849 272.417 723.567 273.193 723.567 274.203C723.567 275.109 723.843 275.839 724.396 276.391C724.958 276.932 725.906 277.448 727.239 277.938C728.573 278.427 729.619 278.88 730.38 279.297C731.14 279.714 731.781 280.193 732.302 280.734C732.823 281.266 733.224 281.88 733.505 282.578C733.786 283.276 733.927 284.094 733.927 285.031C733.927 286.792 733.385 288.219 732.302 289.312C731.229 290.406 729.729 291.052 727.802 291.25V294.297H725.317V291.266C723.255 291.036 721.666 290.297 720.552 289.047C719.448 287.797 718.896 286.141 718.896 284.078H722.692C722.692 285.391 723.021 286.406 723.677 287.125C724.343 287.844 725.281 288.203 726.489 288.203C727.677 288.203 728.578 287.917 729.192 287.344C729.817 286.771 730.13 286.01 730.13 285.062ZM752.364 270.359L743.271 291H739.286L748.364 271.297H736.599V268.25H752.364V270.359ZM756.427 279.719L757.661 268.25H769.88V271.531H760.817L760.192 276.969C761.244 276.365 762.432 276.062 763.755 276.062C765.922 276.062 767.604 276.755 768.802 278.141C770.01 279.526 770.614 281.391 770.614 283.734C770.614 286.047 769.948 287.891 768.614 289.266C767.281 290.63 765.453 291.312 763.13 291.312C761.047 291.312 759.317 290.724 757.942 289.547C756.578 288.359 755.838 286.797 755.724 284.859H759.396C759.541 285.964 759.937 286.812 760.583 287.406C761.229 287.99 762.073 288.281 763.114 288.281C764.281 288.281 765.187 287.865 765.833 287.031C766.489 286.198 766.817 285.062 766.817 283.625C766.817 282.24 766.458 281.146 765.739 280.344C765.021 279.531 764.031 279.125 762.771 279.125C762.083 279.125 761.5 279.219 761.021 279.406C760.541 279.583 760.021 279.938 759.458 280.469L756.427 279.719ZM788.427 281.422C788.427 284.693 787.812 287.161 786.583 288.828C785.364 290.484 783.505 291.312 781.005 291.312C778.547 291.312 776.692 290.505 775.442 288.891C774.203 287.266 773.567 284.865 773.536 281.688V277.75C773.536 274.479 774.146 272.026 775.364 270.391C776.593 268.755 778.463 267.938 780.974 267.938C783.463 267.938 785.317 268.734 786.536 270.328C787.765 271.922 788.396 274.307 788.427 277.484V281.422ZM784.63 277.172C784.63 275.036 784.338 273.474 783.755 272.484C783.172 271.484 782.244 270.984 780.974 270.984C779.734 270.984 778.823 271.458 778.239 272.406C777.656 273.344 777.349 274.812 777.317 276.812V281.969C777.317 284.094 777.614 285.677 778.208 286.719C778.802 287.76 779.734 288.281 781.005 288.281C782.224 288.281 783.125 287.802 783.708 286.844C784.291 285.875 784.599 284.365 784.63 282.312V277.172Z" fill="#2B2E4A"/>
<path d="M889 242C887.9 242 887 242.9 887 244C887 245.1 887.9 246 889 246C890.1 246 891 245.1 891 244C891 242.9 890.1 242 889 242ZM901 242C899.9 242 899 242.9 899 244C899 245.1 899.9 246 901 246C902.1 246 903 245.1 903 244C903 242.9 902.1 242 901 242ZM895 242C893.9 242 893 242.9 893 244C893 245.1 893.9 246 895 246C896.1 246 897 245.1 897 244C897 242.9 896.1 242 895 242Z" fill="#CFD8DC"/>
</g>
<g filter="url(#filter2_dd_206_1228)">
<path d="M1304 208H994.667C985.83 208 978.667 215.163 978.667 224V320C978.667 328.837 985.83 336 994.667 336H1304C1312.84 336 1320 328.837 1320 320V224C1320 215.163 1312.84 208 1304 208Z" fill="white"/>
<path d="M1057.54 296.897C1052.73 299.772 1047.18 301.19 1041.58 300.98C1035.98 300.769 1030.55 298.939 1025.97 295.711C1021.39 292.482 1017.84 287.995 1015.75 282.791C1013.66 277.587 1013.13 271.889 1014.22 266.389C1015.3 260.888 1017.96 255.82 1021.86 251.797C1025.77 247.775 1030.76 244.971 1036.22 243.725C1041.69 242.479 1047.4 242.844 1052.66 244.777C1057.93 246.709 1062.52 250.126 1065.88 254.613" stroke="#EC4899" stroke-width="6" stroke-linecap="round"/>
<path d="M1070.61 264.229C1071.85 268.689 1072 273.381 1071.06 277.913C1070.12 282.445 1068.1 286.685 1065.18 290.279" stroke="#ECEFF1" stroke-width="6" stroke-linecap="round"/>
<path d="M1115.67 244H1102.67C1100.46 244 1098.67 245.791 1098.67 248C1098.67 250.209 1100.46 252 1102.67 252H1115.67C1117.88 252 1119.67 250.209 1119.67 248C1119.67 245.791 1117.88 244 1115.67 244Z" fill="#ECEFF1"/>
<path d="M1132.67 244H1129.67C1127.46 244 1125.67 245.791 1125.67 248C1125.67 250.209 1127.46 252 1129.67 252H1132.67C1134.88 252 1136.67 250.209 1136.67 248C1136.67 245.791 1134.88 244 1132.67 244Z" fill="#ECEFF1"/>
<path d="M1170.67 244H1146.67C1144.46 244 1142.67 245.791 1142.67 248C1142.67 250.209 1144.46 252 1146.67 252H1170.67C1172.88 252 1174.67 250.209 1174.67 248C1174.67 245.791 1172.88 244 1170.67 244Z" fill="#ECEFF1"/>
<path d="M1115.67 291H1100.37V288.391L1107.95 280.125C1109.04 278.906 1109.82 277.891 1110.28 277.078C1110.75 276.255 1110.98 275.432 1110.98 274.609C1110.98 273.526 1110.67 272.651 1110.06 271.984C1109.45 271.318 1108.64 270.984 1107.61 270.984C1106.38 270.984 1105.42 271.359 1104.75 272.109C1104.07 272.859 1103.73 273.885 1103.73 275.188H1099.93C1099.93 273.802 1100.25 272.557 1100.87 271.453C1101.51 270.339 1102.41 269.474 1103.57 268.859C1104.75 268.245 1106.11 267.938 1107.64 267.938C1109.85 267.938 1111.58 268.495 1112.86 269.609C1114.14 270.714 1114.78 272.245 1114.78 274.203C1114.78 275.339 1114.45 276.531 1113.81 277.781C1113.17 279.021 1112.13 280.432 1110.67 282.016L1105.11 287.969H1115.67V291ZM1131.4 282.891H1134.23V285.938H1131.4V291H1127.61V285.938H1117.78L1117.67 283.625L1127.48 268.25H1131.4V282.891ZM1121.65 282.891H1127.61V273.391L1127.32 273.891L1121.65 282.891ZM1151.57 281.422C1151.57 284.693 1150.96 287.161 1149.73 288.828C1148.51 290.484 1146.65 291.312 1144.15 291.312C1141.69 291.312 1139.84 290.505 1138.59 288.891C1137.35 287.266 1136.71 284.865 1136.68 281.688V277.75C1136.68 274.479 1137.29 272.026 1138.51 270.391C1139.74 268.755 1141.61 267.938 1144.12 267.938C1146.61 267.938 1148.46 268.734 1149.68 270.328C1150.91 271.922 1151.54 274.307 1151.57 277.484V281.422ZM1147.78 277.172C1147.78 275.036 1147.49 273.474 1146.9 272.484C1146.32 271.484 1145.39 270.984 1144.12 270.984C1142.88 270.984 1141.97 271.458 1141.39 272.406C1140.8 273.344 1140.5 274.812 1140.46 276.812V281.969C1140.46 284.094 1140.76 285.677 1141.36 286.719C1141.95 287.76 1142.88 288.281 1144.15 288.281C1145.37 288.281 1146.27 287.802 1146.86 286.844C1147.44 285.875 1147.75 284.365 1147.78 282.312V277.172Z" fill="#2B2E4A"/>
</g>
<g filter="url(#filter3_dd_206_1228)">
<path d="M923 368H232C223.163 368 216 375.163 216 384V832C216 840.837 223.163 848 232 848H923C931.837 848 939 840.837 939 832V384C939 375.163 931.837 368 923 368Z" fill="white"/>
<path d="M276 473.119H252C249.791 473.119 248 474.91 248 477.119C248 479.328 249.791 481.119 252 481.119H276C278.209 481.119 280 479.328 280 477.119C280 474.91 278.209 473.119 276 473.119Z" fill="#ECEFF1"/>
<path d="M276 524.533H260C257.791 524.533 256 526.324 256 528.533C256 530.742 257.791 532.533 260 532.533H276C278.209 532.533 280 530.742 280 528.533C280 526.324 278.209 524.533 276 524.533Z" fill="#ECEFF1"/>
<path d="M276 575.945H260C257.791 575.945 256 577.736 256 579.945C256 582.154 257.791 583.945 260 583.945H276C278.209 583.945 280 582.154 280 579.945C280 577.736 278.209 575.945 276 575.945Z" fill="#ECEFF1"/>
<path d="M276 627.359H271C268.791 627.359 267 629.15 267 631.359C267 633.568 268.791 635.359 271 635.359H276C278.209 635.359 280 633.568 280 631.359C280 629.15 278.209 627.359 276 627.359Z" fill="#ECEFF1"/>
<path d="M276 678.652H260C257.791 678.652 256 680.443 256 682.652C256 684.861 257.791 686.652 260 686.652H276C278.209 686.652 280 684.861 280 682.652C280 680.443 278.209 678.652 276 678.652Z" fill="#ECEFF1"/>
<path d="M276 729.826H260C257.791 729.826 256 731.617 256 733.826C256 736.035 257.791 737.826 260 737.826H276C278.209 737.826 280 736.035 280 733.826C280 731.617 278.209 729.826 276 729.826Z" fill="#ECEFF1"/>
<path d="M276 781H252C249.791 781 248 782.791 248 785C248 787.209 249.791 789 252 789H276C278.209 789 280 787.209 280 785C280 782.791 278.209 781 276 781Z" fill="#ECEFF1"/>
<path d="M312 476.53H907" stroke="#ECEFF1" stroke-width="0.611765"/>
<path d="M312 527.919H907" stroke="#ECEFF1" stroke-width="0.611765"/>
<path d="M312 579.307H907" stroke="#ECEFF1" stroke-width="0.611765"/>
<path d="M312 630.694H907" stroke="#ECEFF1" stroke-width="0.611765"/>
<path d="M312 682.083H907" stroke="#ECEFF1" stroke-width="0.611765"/>
<path d="M312 733.471H907" stroke="#ECEFF1" stroke-width="0.611765"/>
<path d="M312 784.86H907" stroke="#ECEFF1" stroke-width="0.611765"/>
<path d="M320 400H255C251.134 400 248 403.134 248 407C248 410.866 251.134 414 255 414H320C323.866 414 327 410.866 327 407C327 403.134 323.866 400 320 400Z" fill="#ECEFF1"/>
<path d="M382 400H342C338.134 400 335 403.134 335 407C335 410.866 338.134 414 342 414H382C385.866 414 389 410.866 389 407C389 403.134 385.866 400 382 400Z" fill="#ECEFF1"/>
<path d="M414 400H404C400.134 400 397 403.134 397 407C397 410.866 400.134 414 404 414H414C417.866 414 421 410.866 421 407C421 403.134 417.866 400 414 400Z" fill="#ECEFF1"/>
<path d="M324 596.5C324 593.186 321.314 590.5 318 590.5C314.686 590.5 312 593.186 312 596.5V605.5C312 608.814 314.686 611.5 318 611.5C321.314 611.5 324 608.814 324 605.5V596.5Z" fill="#EC4899"/>
<path d="M324 625.5C324 622.186 321.314 619.5 318 619.5C314.686 619.5 312 622.186 312 625.5V663.5C312 666.814 314.686 669.5 318 669.5C321.314 669.5 324 666.814 324 663.5V625.5Z" fill="#4D66F3" fill-opacity="0.3"/>
<path d="M358.294 553C358.294 549.686 355.608 547 352.294 547C348.98 547 346.294 549.686 346.294 553V657C346.294 660.314 348.98 663 352.294 663C355.608 663 358.294 660.314 358.294 657V553Z" fill="#EC4899"/>
<path d="M358.294 677C358.294 673.686 355.608 671 352.294 671C348.98 671 346.294 673.686 346.294 677V707C346.294 710.314 348.98 713 352.294 713C355.608 713 358.294 710.314 358.294 707V677Z" fill="#4D66F3" fill-opacity="0.3"/>
<path d="M392.588 586C392.588 582.686 389.902 580 386.588 580C383.274 580 380.588 582.686 380.588 586V641C380.588 644.314 383.274 647 386.588 647C389.902 647 392.588 644.314 392.588 641V586Z" fill="#EC4899"/>
<path d="M392.588 661C392.588 657.686 389.902 655 386.588 655C383.274 655 380.588 657.686 380.588 661V674C380.588 677.314 383.274 680 386.588 680C389.902 680 392.588 677.314 392.588 674V661Z" fill="#4D66F3" fill-opacity="0.3"/>
<path d="M426.883 602C426.883 598.686 424.197 596 420.883 596C417.569 596 414.883 598.686 414.883 602V609C414.883 612.314 417.569 615 420.883 615C424.197 615 426.883 612.314 426.883 609V602Z" fill="#EC4899"/>
<path d="M426.883 629C426.883 625.686 424.197 623 420.883 623C417.569 623 414.883 625.686 414.883 629V658C414.883 661.314 417.569 664 420.883 664C424.197 664 426.883 661.314 426.883 658V629Z" fill="#4D66F3" fill-opacity="0.3"/>
<path d="M461.177 569.5C461.177 566.186 458.491 563.5 455.177 563.5C451.863 563.5 449.177 566.186 449.177 569.5V639.5C449.177 642.814 451.863 645.5 455.177 645.5C458.491 645.5 461.177 642.814 461.177 639.5V569.5Z" fill="#EC4899"/>
<path d="M461.177 659.5C461.177 656.186 458.491 653.5 455.177 653.5C451.863 653.5 449.177 656.186 449.177 659.5V690.5C449.177 693.814 451.863 696.5 455.177 696.5C458.491 696.5 461.177 693.814 461.177 690.5V659.5Z" fill="#4D66F3" fill-opacity="0.3"/>
<path d="M495.471 594C495.471 590.686 492.785 588 489.471 588C486.157 588 483.471 590.686 483.471 594V639C483.471 642.314 486.157 645 489.471 645C492.785 645 495.471 642.314 495.471 639V594Z" fill="#EC4899"/>
<path d="M495.471 659C495.471 655.686 492.785 653 489.471 653C486.157 653 483.471 655.686 483.471 659V666C483.471 669.314 486.157 672 489.471 672C492.785 672 495.471 669.314 495.471 666V659Z" fill="#4D66F3" fill-opacity="0.3"/>
<path d="M529.765 518C529.765 514.686 527.079 512 523.765 512C520.451 512 517.765 514.686 517.765 518V656C517.765 659.314 520.451 662 523.765 662C527.079 662 529.765 659.314 529.765 656V518Z" fill="#EC4899"/>
<path d="M529.765 676C529.765 672.686 527.079 670 523.765 670C520.451 670 517.765 672.686 517.765 676V742C517.765 745.314 520.451 748 523.765 748C527.079 748 529.765 745.314 529.765 742V676Z" fill="#4D66F3" fill-opacity="0.3"/>
<path d="M564.059 545C564.059 541.686 561.373 539 558.059 539C554.745 539 552.059 541.686 552.059 545V575C552.059 578.314 554.745 581 558.059 581C561.373 581 564.059 578.314 564.059 575V545Z" fill="#EC4899"/>
<path d="M564.059 595C564.059 591.686 561.373 589 558.059 589C554.745 589 552.059 591.686 552.059 595V715C552.059 718.314 554.745 721 558.059 721C561.373 721 564.059 718.314 564.059 715V595Z" fill="#4D66F3" fill-opacity="0.3"/>
<path d="M598.353 567.5C598.353 564.186 595.667 561.5 592.353 561.5C589.039 561.5 586.353 564.186 586.353 567.5V584.5C586.353 587.814 589.039 590.5 592.353 590.5C595.667 590.5 598.353 587.814 598.353 584.5V567.5Z" fill="#EC4899"/>
<path d="M598.353 604.5C598.353 601.186 595.667 598.5 592.353 598.5C589.039 598.5 586.353 601.186 586.353 604.5V692.5C586.353 695.814 589.039 698.5 592.353 698.5C595.667 698.5 598.353 695.814 598.353 692.5V604.5Z" fill="#4D66F3" fill-opacity="0.3"/>
<path d="M632.647 567C632.647 563.686 629.961 561 626.647 561C623.333 561 620.647 563.686 620.647 567V659C620.647 662.314 623.333 665 626.647 665C629.961 665 632.647 662.314 632.647 659V567Z" fill="#EC4899"/>
<path d="M632.647 679C632.647 675.686 629.961 673 626.647 673C623.333 673 620.647 675.686 620.647 679V693C620.647 696.314 623.333 699 626.647 699C629.961 699 632.647 696.314 632.647 693V679Z" fill="#4D66F3" fill-opacity="0.3"/>
<path d="M666.941 525.5C666.941 522.186 664.255 519.5 660.941 519.5C657.627 519.5 654.941 522.186 654.941 525.5V612.5C654.941 615.814 657.627 618.5 660.941 618.5C664.255 618.5 666.941 615.814 666.941 612.5V525.5Z" fill="#EC4899"/>
<path d="M666.941 632.5C666.941 629.186 664.255 626.5 660.941 626.5C657.627 626.5 654.941 629.186 654.941 632.5V734.5C654.941 737.814 657.627 740.5 660.941 740.5C664.255 740.5 666.941 737.814 666.941 734.5V632.5Z" fill="#4D66F3" fill-opacity="0.3"/>
<path d="M701.235 613C701.235 609.686 698.549 607 695.235 607C691.921 607 689.235 609.686 689.235 613V647C689.235 650.314 691.921 653 695.235 653C698.549 653 701.235 650.314 701.235 647V613Z" fill="#EC4899"/>
<path d="M735.529 565.5C735.529 562.186 732.843 559.5 729.529 559.5C726.215 559.5 723.529 562.186 723.529 565.5V599.5C723.529 602.814 726.215 605.5 729.529 605.5C732.843 605.5 735.529 602.814 735.529 599.5V565.5Z" fill="#EC4899"/>
<path d="M735.529 619.5C735.529 616.186 732.843 613.5 729.529 613.5C726.215 613.5 723.529 616.186 723.529 619.5V694.5C723.529 697.814 726.215 700.5 729.529 700.5C732.843 700.5 735.529 697.814 735.529 694.5V619.5Z" fill="#4D66F3" fill-opacity="0.3"/>
<path d="M769.823 558.5C769.823 555.186 767.137 552.5 763.823 552.5C760.509 552.5 757.823 555.186 757.823 558.5V648.5C757.823 651.814 760.509 654.5 763.823 654.5C767.137 654.5 769.823 651.814 769.823 648.5V558.5Z" fill="#EC4899"/>
<path d="M769.823 668.5C769.823 665.186 767.137 662.5 763.823 662.5C760.509 662.5 757.823 665.186 757.823 668.5V701.5C757.823 704.814 760.509 707.5 763.823 707.5C767.137 707.5 769.823 704.814 769.823 701.5V668.5Z" fill="#4D66F3" fill-opacity="0.3"/>
<path d="M804.118 595.5C804.118 592.186 801.432 589.5 798.118 589.5C794.804 589.5 792.118 592.186 792.118 595.5V620C792.118 623.314 794.804 626 798.118 626C801.432 626 804.118 623.314 804.118 620V595.5Z" fill="#EC4899"/>
<path d="M804.118 640C804.118 636.686 801.432 634 798.118 634C794.804 634 792.118 636.686 792.118 640V664.5C792.118 667.814 794.804 670.5 798.118 670.5C801.432 670.5 804.118 667.814 804.118 664.5V640Z" fill="#4D66F3" fill-opacity="0.3"/>
<path d="M838.412 549.5C838.412 546.186 835.726 543.5 832.412 543.5C829.098 543.5 826.412 546.186 826.412 549.5V598.5C826.412 601.814 829.098 604.5 832.412 604.5C835.726 604.5 838.412 601.814 838.412 598.5V549.5Z" fill="#EC4899"/>
<path d="M838.412 618.5C838.412 615.186 835.726 612.5 832.412 612.5C829.098 612.5 826.412 615.186 826.412 618.5V710.5C826.412 713.814 829.098 716.5 832.412 716.5C835.726 716.5 838.412 713.814 838.412 710.5V618.5Z" fill="#4D66F3" fill-opacity="0.3"/>
<path d="M872.706 573C872.706 569.686 870.02 567 866.706 567C863.392 567 860.706 569.686 860.706 573V646C860.706 649.314 863.392 652 866.706 652C870.02 652 872.706 649.314 872.706 646V573Z" fill="#EC4899"/>
<path d="M872.706 666C872.706 662.686 870.02 660 866.706 660C863.392 660 860.706 662.686 860.706 666V687C860.706 690.314 863.392 693 866.706 693C870.02 693 872.706 690.314 872.706 687V666Z" fill="#4D66F3" fill-opacity="0.3"/>
<path d="M907 603.5C907 600.186 904.314 597.5 901 597.5C897.686 597.5 895 600.186 895 603.5V611.5C895 614.814 897.686 617.5 901 617.5C904.314 617.5 907 614.814 907 611.5V603.5Z" fill="#EC4899"/>
<path d="M907 631.5C907 628.186 904.314 625.5 901 625.5C897.686 625.5 895 628.186 895 631.5V656.5C895 659.814 897.686 662.5 901 662.5C904.314 662.5 907 659.814 907 656.5V631.5Z" fill="#4D66F3" fill-opacity="0.3"/>
</g>
<g filter="url(#filter4_dd_206_1228)">
<path d="M1304 368H995C986.163 368 979 375.163 979 384V576C979 584.837 986.163 592 995 592H1304C1312.84 592 1320 584.837 1320 576V384C1320 375.163 1312.84 368 1304 368Z" fill="white"/>
<path d="M1037 400H1018C1014.13 400 1011 403.134 1011 407C1011 410.866 1014.13 414 1018 414H1037C1040.87 414 1044 410.866 1044 407C1044 403.134 1040.87 400 1037 400Z" fill="#ECEFF1"/>
<path d="M1126 400H1059C1055.13 400 1052 403.134 1052 407C1052 410.866 1055.13 414 1059 414H1126C1129.87 414 1133 410.866 1133 407C1133 403.134 1129.87 400 1126 400Z" fill="#ECEFF1"/>
<path d="M1288 475.769L1283.38 469.288C1278.77 462.807 1269.53 449.844 1260.3 446.166C1251.07 442.488 1241.83 448.095 1232.6 454.832C1223.37 461.569 1214.13 469.436 1204.9 466.276C1195.67 463.115 1186.43 448.927 1177.2 453.779C1167.97 458.631 1158.73 482.524 1149.5 487.014C1140.27 491.504 1131.03 476.592 1121.8 475.882C1112.57 475.172 1103.33 488.665 1094.1 486.135C1084.87 483.605 1075.63 465.052 1066.4 466.819C1057.17 468.585 1047.93 490.67 1038.7 502.254C1029.47 513.837 1020.23 514.919 1015.62 515.459L1011 516" stroke="#CFD8DC" stroke-width="3" stroke-linecap="round"/>
<path d="M1011 515.813L1014.85 515.947C1018.69 516.08 1026.39 516.347 1034.08 511.294C1041.78 506.241 1049.47 495.868 1057.17 494.349C1064.86 492.831 1072.56 500.166 1080.25 495.81C1087.94 491.454 1095.64 475.406 1103.33 464.271C1111.03 453.136 1118.72 446.915 1126.42 454.034C1134.11 461.154 1141.81 481.615 1149.5 491.453C1157.19 501.291 1164.89 500.506 1172.58 497.814C1180.28 495.121 1187.97 490.522 1195.67 484.661C1203.36 478.8 1211.06 471.679 1218.75 474.586C1226.44 477.493 1234.14 490.43 1241.83 499.137C1249.53 507.843 1257.22 512.32 1264.92 513.331C1272.61 514.342 1280.31 511.887 1284.15 510.659L1288 509.432" stroke="#EC4899" stroke-width="3" stroke-linecap="round"/>
<path d="M1060 560C1063.31 560 1066 557.314 1066 554C1066 550.686 1063.31 548 1060 548C1056.69 548 1054 550.686 1054 554C1054 557.314 1056.69 560 1060 560Z" fill="#EC4899"/>
<path d="M1096 550H1082C1079.79 550 1078 551.791 1078 554C1078 556.209 1079.79 558 1082 558H1096C1098.21 558 1100 556.209 1100 554C1100 551.791 1098.21 550 1096 550Z" fill="#ECEFF1"/>
<path d="M1136 550H1110C1107.79 550 1106 551.791 1106 554C1106 556.209 1107.79 558 1110 558H1136C1138.21 558 1140 556.209 1140 554C1140 551.791 1138.21 550 1136 550Z" fill="#ECEFF1"/>
<path d="M1178 560C1181.31 560 1184 557.314 1184 554C1184 550.686 1181.31 548 1178 548C1174.69 548 1172 550.686 1172 554C1172 557.314 1174.69 560 1178 560Z" fill="#CFD8DC"/>
<path d="M1223 550H1196C1193.79 550 1192 551.791 1192 554C1192 556.209 1193.79 558 1196 558H1223C1225.21 558 1227 556.209 1227 554C1227 551.791 1225.21 550 1223 550Z" fill="#ECEFF1"/>
</g>
<g filter="url(#filter5_dd_206_1228)">
<path d="M1304 624H995C986.163 624 979 631.163 979 640V832C979 840.837 986.163 848 995 848H1304C1312.84 848 1320 840.837 1320 832V640C1320 631.163 1312.84 624 1304 624Z" fill="white"/>
<path d="M1045 656H1018C1014.13 656 1011 659.134 1011 663C1011 666.866 1014.13 670 1018 670H1045C1048.87 670 1052 666.866 1052 663C1052 659.134 1048.87 656 1045 656Z" fill="#ECEFF1"/>
<path d="M1104 656H1067C1063.13 656 1060 659.134 1060 663C1060 666.866 1063.13 670 1067 670H1104C1107.87 670 1111 666.866 1111 663C1111 659.134 1107.87 656 1104 656Z" fill="#ECEFF1"/>
<path d="M1019 736C1019 733.791 1017.21 732 1015 732C1012.79 732 1011 733.791 1011 736V764C1011 766.209 1012.79 768 1015 768C1017.21 768 1019 766.209 1019 764V736Z" fill="#EC4899"/>
<path d="M1030.21 728C1030.21 725.791 1028.42 724 1026.21 724C1024 724 1022.21 725.791 1022.21 728V764C1022.21 766.209 1024 768 1026.21 768C1028.42 768 1030.21 766.209 1030.21 764V728Z" fill="#EC4899"/>
<path d="M1041.42 722C1041.42 719.791 1039.63 718 1037.42 718C1035.21 718 1033.42 719.791 1033.42 722V764C1033.42 766.209 1035.21 768 1037.42 768C1039.63 768 1041.42 766.209 1041.42 764V722Z" fill="#EC4899"/>
<path d="M1052.62 718C1052.62 715.791 1050.83 714 1048.62 714C1046.42 714 1044.62 715.791 1044.62 718V764C1044.62 766.209 1046.42 768 1048.62 768C1050.83 768 1052.62 766.209 1052.62 764V718Z" fill="#EC4899"/>
<path d="M1063.83 724C1063.83 721.791 1062.04 720 1059.83 720C1057.62 720 1055.83 721.791 1055.83 724V764C1055.83 766.209 1057.62 768 1059.83 768C1062.04 768 1063.83 766.209 1063.83 764V724Z" fill="#EC4899"/>
<path d="M1075.04 733C1075.04 730.791 1073.25 729 1071.04 729C1068.83 729 1067.04 730.791 1067.04 733V764C1067.04 766.209 1068.83 768 1071.04 768C1073.25 768 1075.04 766.209 1075.04 764V733Z" fill="#EC4899"/>
<path d="M1086.25 740C1086.25 737.791 1084.46 736 1082.25 736C1080.04 736 1078.25 737.791 1078.25 740V764C1078.25 766.209 1080.04 768 1082.25 768C1084.46 768 1086.25 766.209 1086.25 764V740Z" fill="#EC4899"/>
<path d="M1097.46 729C1097.46 726.791 1095.67 725 1093.46 725C1091.25 725 1089.46 726.791 1089.46 729V764C1089.46 766.209 1091.25 768 1093.46 768C1095.67 768 1097.46 766.209 1097.46 764V729Z" fill="#EC4899"/>
<path d="M1108.67 722C1108.67 719.791 1106.88 718 1104.67 718C1102.46 718 1100.67 719.791 1100.67 722V764C1100.67 766.209 1102.46 768 1104.67 768C1106.88 768 1108.67 766.209 1108.67 764V722Z" fill="#EC4899"/>
<path d="M1119.88 729C1119.88 726.791 1118.09 725 1115.88 725C1113.67 725 1111.88 726.791 1111.88 729V764C1111.88 766.209 1113.67 768 1115.88 768C1118.09 768 1119.88 766.209 1119.88 764V729Z" fill="#EC4899"/>
<path d="M1131.08 740C1131.08 737.791 1129.29 736 1127.08 736C1124.87 736 1123.08 737.791 1123.08 740V764C1123.08 766.209 1124.87 768 1127.08 768C1129.29 768 1131.08 766.209 1131.08 764V740Z" fill="#EC4899"/>
<path d="M1142.29 749C1142.29 746.791 1140.5 745 1138.29 745C1136.08 745 1134.29 746.791 1134.29 749V764C1134.29 766.209 1136.08 768 1138.29 768C1140.5 768 1142.29 766.209 1142.29 764V749Z" fill="#EC4899"/>
<path d="M1153.5 752C1153.5 749.791 1151.71 748 1149.5 748C1147.29 748 1145.5 749.791 1145.5 752V764C1145.5 766.209 1147.29 768 1149.5 768C1151.71 768 1153.5 766.209 1153.5 764V752Z" fill="#EC4899"/>
<path d="M1164.71 748C1164.71 745.791 1162.92 744 1160.71 744C1158.5 744 1156.71 745.791 1156.71 748V764C1156.71 766.209 1158.5 768 1160.71 768C1162.92 768 1164.71 766.209 1164.71 764V748Z" fill="#EC4899"/>
<path d="M1175.92 743C1175.92 740.791 1174.13 739 1171.92 739C1169.71 739 1167.92 740.791 1167.92 743V764C1167.92 766.209 1169.71 768 1171.92 768C1174.13 768 1175.92 766.209 1175.92 764V743Z" fill="#EC4899"/>
<path d="M1187.12 736C1187.12 733.791 1185.33 732 1183.12 732C1180.91 732 1179.12 733.791 1179.12 736V764C1179.12 766.209 1180.91 768 1183.12 768C1185.33 768 1187.12 766.209 1187.12 764V736Z" fill="#EC4899"/>
<path d="M1198.33 726C1198.33 723.791 1196.54 722 1194.33 722C1192.12 722 1190.33 723.791 1190.33 726V764C1190.33 766.209 1192.12 768 1194.33 768C1196.54 768 1198.33 766.209 1198.33 764V726Z" fill="#EC4899"/>
<path d="M1019 778C1019 780.209 1017.21 782 1015 782C1012.79 782 1011 780.209 1011 778V776C1011 773.791 1012.79 772 1015 772C1017.21 772 1019 773.791 1019 776V778Z" fill="#4D66F3" fill-opacity="0.3"/>
<path d="M1030.21 786C1030.21 788.209 1028.42 790 1026.21 790C1024 790 1022.21 788.209 1022.21 786V776C1022.21 773.791 1024 772 1026.21 772C1028.42 772 1030.21 773.791 1030.21 776V786Z" fill="#4D66F3" fill-opacity="0.3"/>
<path d="M1041.42 795C1041.42 797.209 1039.63 799 1037.42 799C1035.21 799 1033.42 797.209 1033.42 795V776C1033.42 773.791 1035.21 772 1037.42 772C1039.63 772 1041.42 773.791 1041.42 776V795Z" fill="#4D66F3" fill-opacity="0.3"/>
<path d="M1052.62 804C1052.62 806.209 1050.83 808 1048.62 808C1046.42 808 1044.62 806.209 1044.62 804V776C1044.62 773.791 1046.42 772 1048.62 772C1050.83 772 1052.62 773.791 1052.62 776V804Z" fill="#4D66F3" fill-opacity="0.3"/>
<path d="M1063.83 811C1063.83 813.209 1062.04 815 1059.83 815C1057.62 815 1055.83 813.209 1055.83 811V776C1055.83 773.791 1057.62 772 1059.83 772C1062.04 772 1063.83 773.791 1063.83 776V811Z" fill="#4D66F3" fill-opacity="0.3"/>
<path d="M1075.04 812C1075.04 814.209 1073.25 816 1071.04 816C1068.83 816 1067.04 814.209 1067.04 812V776C1067.04 773.791 1068.83 772 1071.04 772C1073.25 772 1075.04 773.791 1075.04 776V812Z" fill="#4D66F3" fill-opacity="0.3"/>
<path d="M1086.25 811C1086.25 813.209 1084.46 815 1082.25 815C1080.04 815 1078.25 813.209 1078.25 811V776C1078.25 773.791 1080.04 772 1082.25 772C1084.46 772 1086.25 773.791 1086.25 776V811Z" fill="#4D66F3" fill-opacity="0.3"/>
<path d="M1097.46 809C1097.46 811.209 1095.67 813 1093.46 813C1091.25 813 1089.46 811.209 1089.46 809V776C1089.46 773.791 1091.25 772 1093.46 772C1095.67 772 1097.46 773.791 1097.46 776V809Z" fill="#4D66F3" fill-opacity="0.3"/>
<path d="M1108.67 805C1108.67 807.209 1106.88 809 1104.67 809C1102.46 809 1100.67 807.209 1100.67 805V776C1100.67 773.791 1102.46 772 1104.67 772C1106.88 772 1108.67 773.791 1108.67 776V805Z" fill="#4D66F3" fill-opacity="0.3"/>
<path d="M1119.88 800C1119.88 802.209 1118.09 804 1115.88 804C1113.67 804 1111.88 802.209 1111.88 800V776C1111.88 773.791 1113.67 772 1115.88 772C1118.09 772 1119.88 773.791 1119.88 776V800Z" fill="#4D66F3" fill-opacity="0.3"/>
<path d="M1131.08 796C1131.08 798.209 1129.29 800 1127.08 800C1124.87 800 1123.08 798.209 1123.08 796V776C1123.08 773.791 1124.87 772 1127.08 772C1129.29 772 1131.08 773.791 1131.08 776V796Z" fill="#4D66F3" fill-opacity="0.3"/>
<path d="M1142.29 792C1142.29 794.209 1140.5 796 1138.29 796C1136.08 796 1134.29 794.209 1134.29 792V776C1134.29 773.791 1136.08 772 1138.29 772C1140.5 772 1142.29 773.791 1142.29 776V792Z" fill="#4D66F3" fill-opacity="0.3"/>
<path d="M1153.5 790C1153.5 792.209 1151.71 794 1149.5 794C1147.29 794 1145.5 792.209 1145.5 790V776C1145.5 773.791 1147.29 772 1149.5 772C1151.71 772 1153.5 773.791 1153.5 776V790Z" fill="#4D66F3" fill-opacity="0.3"/>
<path d="M1164.71 786C1164.71 788.209 1162.92 790 1160.71 790C1158.5 790 1156.71 788.209 1156.71 786V776C1156.71 773.791 1158.5 772 1160.71 772C1162.92 772 1164.71 773.791 1164.71 776V786Z" fill="#4D66F3" fill-opacity="0.3"/>
<path d="M1175.92 781C1175.92 783.209 1174.13 785 1171.92 785C1169.71 785 1167.92 783.209 1167.92 781V776C1167.92 773.791 1169.71 772 1171.92 772C1174.13 772 1175.92 773.791 1175.92 776V781Z" fill="#4D66F3" fill-opacity="0.3"/>
<path d="M1187.12 777C1187.12 779.209 1185.33 781 1183.12 781C1180.91 781 1179.12 779.209 1179.12 777V776C1179.12 773.791 1180.91 772 1183.12 772C1185.33 772 1187.12 773.791 1187.12 776V777Z" fill="#4D66F3" fill-opacity="0.3"/>
<path d="M1198.33 781C1198.33 783.209 1196.54 785 1194.33 785C1192.12 785 1190.33 783.209 1190.33 781V776C1190.33 773.791 1192.12 772 1194.33 772C1196.54 772 1198.33 773.791 1198.33 776V781Z" fill="#4D66F3" fill-opacity="0.3"/>
</g>
<path d="M176 80H80V880H176V80Z" fill="white"/>
<path d="M80 320H73C71.3431 320 70 321.343 70 323V357C70 358.657 71.3431 360 73 360H80C81.6569 360 83 358.657 83 357V323C83 321.343 81.6569 320 80 320Z" fill="#EC4899"/>
<path d="M118 134H134C134.55 134 135 133.55 135 133C135 132.45 134.55 132 134 132H118C117.45 132 117 132.45 117 133C117 133.55 117.45 134 118 134ZM118 129H134C134.55 129 135 128.55 135 128C135 127.45 134.55 127 134 127H118C117.45 127 117 127.45 117 128C117 128.55 117.45 129 118 129ZM117 123C117 123.55 117.45 124 118 124H134C134.55 124 135 123.55 135 123C135 122.45 134.55 122 134 122H118C117.45 122 117 122.45 117 123Z" fill="#CFD8DC"/>
<path d="M126 347.001V342.001H130V347.001C130 347.551 130.45 348.001 131 348.001H134C134.55 348.001 135 347.551 135 347.001V340.001H136.7C137.16 340.001 137.38 339.431 137.03 339.131L128.67 331.601C128.29 331.261 127.71 331.261 127.33 331.601L118.97 339.131C118.63 339.431 118.84 340.001 119.3 340.001H121V347.001C121 347.551 121.45 348.001 122 348.001H125C125.55 348.001 126 347.551 126 347.001Z" fill="#EC4899"/>
<path d="M135 387H121C119.9 387 119 387.9 119 389V403C119 404.1 119.9 405 121 405H135C136.1 405 137 404.1 137 403V389C137 387.9 136.1 387 135 387ZM125 401H123V391H125V401ZM129 396H127V391H129V396ZM133 399H131V391H133V399Z" fill="#CFD8DC"/>
<path d="M135 447H125C123.9 447 123 447.9 123 449V459C123 460.1 123.9 461 125 461H135C136.1 461 137 460.1 137 459V449C137 447.9 136.1 447 135 447ZM135 450C135 450.55 134.55 451 134 451H126C125.45 451 125 450.55 125 450C125 449.45 125.45 449 126 449H134C134.55 449 135 449.45 135 450ZM129 455V453H131V455H129ZM131 457V459H129V457H131ZM127 455H125V453H127V455ZM133 453H135V455H133V453ZM125 457H127V459H125V457ZM133 459V457H135V459H133ZM122 457H121C119.9 457 119 456.1 119 455V445C119 443.9 119.9 443 121 443H131C132.1 443 133 443.9 133 445V446H131V445H121V455H122V457Z" fill="#CFD8DC"/>
<path d="M126 512V504C126 502.9 126.89 502 128 502H137V501C137 499.9 136.1 499 135 499H121C119.89 499 119 499.9 119 501V515C119 516.1 119.89 517 121 517H135C136.1 517 137 516.1 137 515V514H128C126.89 514 126 513.1 126 512ZM129 504C128.45 504 128 504.45 128 505V511C128 511.55 128.45 512 129 512H138V504H129ZM132 509.5C131.17 509.5 130.5 508.83 130.5 508C130.5 507.17 131.17 506.5 132 506.5C132.83 506.5 133.5 507.17 133.5 508C133.5 508.83 132.83 509.5 132 509.5Z" fill="#CFD8DC"/>
<path d="M132 562H124C123.45 562 123 562.45 123 563C123 563.55 123.45 564 124 564H132C132.55 564 133 563.55 133 563C133 562.45 132.55 562 132 562ZM135 555H134V554C134 553.45 133.55 553 133 553C132.45 553 132 553.45 132 554V555H124V554C124 553.45 123.55 553 123 553C122.45 553 122 553.45 122 554V555H121C119.89 555 119 555.9 119 557V571C119 572.1 119.89 573 121 573H135C136.1 573 137 572.1 137 571V557C137 555.9 136.1 555 135 555ZM134 571H122C121.45 571 121 570.55 121 570V560H135V570C135 570.55 134.55 571 134 571ZM129 566H124C123.45 566 123 566.45 123 567C123 567.55 123.45 568 124 568H129C129.55 568 130 567.55 130 567C130 566.45 129.55 566 129 566Z" fill="#CFD8DC"/>
<path d="M136 614H135V622C135 622.55 134.55 623 134 623H122V624C122 625.1 122.9 626 124 626H134L138 630V616C138 614.9 137.1 614 136 614ZM133 619V612C133 610.9 132.1 610 131 610H120C118.9 610 118 610.9 118 612V625L122 621H131C132.1 621 133 620.1 133 619Z" fill="#CFD8DC"/>
<path d="M175.5 80V880" stroke="#E8EBED"/>
</g>
<rect x="80.5" y="80.5" width="1279" height="799" rx="15.5" stroke="#94A3B8" stroke-opacity="0.2"/>
</g>
<defs>
<filter id="filter0_dd_206_1228" x="208" y="206" width="357.333" height="146" filterUnits="userSpaceOnUse" color-interpolation-filters="sRGB">
<feFlood flood-opacity="0" result="BackgroundImageFix"/>
<feColorMatrix in="SourceAlpha" type="matrix" values="0 0 0 0 0 0 0 0 0 0 0 0 0 0 0 0 0 0 127 0" result="hardAlpha"/>
<feOffset dy="8"/>
<feGaussianBlur stdDeviation="4"/>
<feColorMatrix type="matrix" values="0 0 0 0 0.0941176 0 0 0 0 0.152941 0 0 0 0 0.294118 0 0 0 0.04 0"/>
<feBlend mode="normal" in2="BackgroundImageFix" result="effect1_dropShadow_206_1228"/>
<feColorMatrix in="SourceAlpha" type="matrix" values="0 0 0 0 0 0 0 0 0 0 0 0 0 0 0 0 0 0 127 0" result="hardAlpha"/>
<feOffset dy="4"/>
<feGaussianBlur stdDeviation="3"/>
<feColorMatrix type="matrix" values="0 0 0 0 0.0941176 0 0 0 0 0.152941 0 0 0 0 0.294118 0 0 0 0.08 0"/>
<feBlend mode="normal" in2="effect1_dropShadow_206_1228" result="effect2_dropShadow_206_1228"/>
<feBlend mode="normal" in="SourceGraphic" in2="effect2_dropShadow_206_1228" result="shape"/>
</filter>
<filter id="filter1_dd_206_1228" x="589.333" y="206" width="357.333" height="146" filterUnits="userSpaceOnUse" color-interpolation-filters="sRGB">
<feFlood flood-opacity="0" result="BackgroundImageFix"/>
<feColorMatrix in="SourceAlpha" type="matrix" values="0 0 0 0 0 0 0 0 0 0 0 0 0 0 0 0 0 0 127 0" result="hardAlpha"/>
<feOffset dy="8"/>
<feGaussianBlur stdDeviation="4"/>
<feColorMatrix type="matrix" values="0 0 0 0 0.0941176 0 0 0 0 0.152941 0 0 0 0 0.294118 0 0 0 0.04 0"/>
<feBlend mode="normal" in2="BackgroundImageFix" result="effect1_dropShadow_206_1228"/>
<feColorMatrix in="SourceAlpha" type="matrix" values="0 0 0 0 0 0 0 0 0 0 0 0 0 0 0 0 0 0 127 0" result="hardAlpha"/>
<feOffset dy="4"/>
<feGaussianBlur stdDeviation="3"/>
<feColorMatrix type="matrix" values="0 0 0 0 0.0941176 0 0 0 0 0.152941 0 0 0 0 0.294118 0 0 0 0.08 0"/>
<feBlend mode="normal" in2="effect1_dropShadow_206_1228" result="effect2_dropShadow_206_1228"/>
<feBlend mode="normal" in="SourceGraphic" in2="effect2_dropShadow_206_1228" result="shape"/>
</filter>
<filter id="filter2_dd_206_1228" x="970.667" y="206" width="357.333" height="146" filterUnits="userSpaceOnUse" color-interpolation-filters="sRGB">
<feFlood flood-opacity="0" result="BackgroundImageFix"/>
<feColorMatrix in="SourceAlpha" type="matrix" values="0 0 0 0 0 0 0 0 0 0 0 0 0 0 0 0 0 0 127 0" result="hardAlpha"/>
<feOffset dy="8"/>
<feGaussianBlur stdDeviation="4"/>
<feColorMatrix type="matrix" values="0 0 0 0 0.0941176 0 0 0 0 0.152941 0 0 0 0 0.294118 0 0 0 0.04 0"/>
<feBlend mode="normal" in2="BackgroundImageFix" result="effect1_dropShadow_206_1228"/>
<feColorMatrix in="SourceAlpha" type="matrix" values="0 0 0 0 0 0 0 0 0 0 0 0 0 0 0 0 0 0 127 0" result="hardAlpha"/>
<feOffset dy="4"/>
<feGaussianBlur stdDeviation="3"/>
<feColorMatrix type="matrix" values="0 0 0 0 0.0941176 0 0 0 0 0.152941 0 0 0 0 0.294118 0 0 0 0.08 0"/>
<feBlend mode="normal" in2="effect1_dropShadow_206_1228" result="effect2_dropShadow_206_1228"/>
<feBlend mode="normal" in="SourceGraphic" in2="effect2_dropShadow_206_1228" result="shape"/>
</filter>
<filter id="filter3_dd_206_1228" x="208" y="366" width="739" height="498" filterUnits="userSpaceOnUse" color-interpolation-filters="sRGB">
<feFlood flood-opacity="0" result="BackgroundImageFix"/>
<feColorMatrix in="SourceAlpha" type="matrix" values="0 0 0 0 0 0 0 0 0 0 0 0 0 0 0 0 0 0 127 0" result="hardAlpha"/>
<feOffset dy="8"/>
<feGaussianBlur stdDeviation="4"/>
<feColorMatrix type="matrix" values="0 0 0 0 0.0941176 0 0 0 0 0.152941 0 0 0 0 0.294118 0 0 0 0.04 0"/>
<feBlend mode="normal" in2="BackgroundImageFix" result="effect1_dropShadow_206_1228"/>
<feColorMatrix in="SourceAlpha" type="matrix" values="0 0 0 0 0 0 0 0 0 0 0 0 0 0 0 0 0 0 127 0" result="hardAlpha"/>
<feOffset dy="4"/>
<feGaussianBlur stdDeviation="3"/>
<feColorMatrix type="matrix" values="0 0 0 0 0.0941176 0 0 0 0 0.152941 0 0 0 0 0.294118 0 0 0 0.08 0"/>
<feBlend mode="normal" in2="effect1_dropShadow_206_1228" result="effect2_dropShadow_206_1228"/>
<feBlend mode="normal" in="SourceGraphic" in2="effect2_dropShadow_206_1228" result="shape"/>
</filter>
<filter id="filter4_dd_206_1228" x="971" y="366" width="357" height="242" filterUnits="userSpaceOnUse" color-interpolation-filters="sRGB">
<feFlood flood-opacity="0" result="BackgroundImageFix"/>
<feColorMatrix in="SourceAlpha" type="matrix" values="0 0 0 0 0 0 0 0 0 0 0 0 0 0 0 0 0 0 127 0" result="hardAlpha"/>
<feOffset dy="8"/>
<feGaussianBlur stdDeviation="4"/>
<feColorMatrix type="matrix" values="0 0 0 0 0.0941176 0 0 0 0 0.152941 0 0 0 0 0.294118 0 0 0 0.04 0"/>
<feBlend mode="normal" in2="BackgroundImageFix" result="effect1_dropShadow_206_1228"/>
<feColorMatrix in="SourceAlpha" type="matrix" values="0 0 0 0 0 0 0 0 0 0 0 0 0 0 0 0 0 0 127 0" result="hardAlpha"/>
<feOffset dy="4"/>
<feGaussianBlur stdDeviation="3"/>
<feColorMatrix type="matrix" values="0 0 0 0 0.0941176 0 0 0 0 0.152941 0 0 0 0 0.294118 0 0 0 0.08 0"/>
<feBlend mode="normal" in2="effect1_dropShadow_206_1228" result="effect2_dropShadow_206_1228"/>
<feBlend mode="normal" in="SourceGraphic" in2="effect2_dropShadow_206_1228" result="shape"/>
</filter>
<filter id="filter5_dd_206_1228" x="971" y="622" width="357" height="242" filterUnits="userSpaceOnUse" color-interpolation-filters="sRGB">
<feFlood flood-opacity="0" result="BackgroundImageFix"/>
<feColorMatrix in="SourceAlpha" type="matrix" values="0 0 0 0 0 0 0 0 0 0 0 0 0 0 0 0 0 0 127 0" result="hardAlpha"/>
<feOffset dy="8"/>
<feGaussianBlur stdDeviation="4"/>
<feColorMatrix type="matrix" values="0 0 0 0 0.0941176 0 0 0 0 0.152941 0 0 0 0 0.294118 0 0 0 0.04 0"/>
<feBlend mode="normal" in2="BackgroundImageFix" result="effect1_dropShadow_206_1228"/>
<feColorMatrix in="SourceAlpha" type="matrix" values="0 0 0 0 0 0 0 0 0 0 0 0 0 0 0 0 0 0 127 0" result="hardAlpha"/>
<feOffset dy="4"/>
<feGaussianBlur stdDeviation="3"/>
<feColorMatrix type="matrix" values="0 0 0 0 0.0941176 0 0 0 0 0.152941 0 0 0 0 0.294118 0 0 0 0.08 0"/>
<feBlend mode="normal" in2="effect1_dropShadow_206_1228" result="effect2_dropShadow_206_1228"/>
<feBlend mode="normal" in="SourceGraphic" in2="effect2_dropShadow_206_1228" result="shape"/>
</filter>
<clipPath id="clip0_206_1228">
<rect width="1200" height="800" rx="16" fill="white"/>
</clipPath>
<clipPath id="clip1_206_1228">
<rect x="80" y="80" width="1280" height="800" rx="16" fill="white"/>
</clipPath>
</defs>
</svg>
