<svg width="144" height="48" viewBox="0 0 144 48" fill="none" xmlns="http://www.w3.org/2000/svg">
<mask id="mask0_203_351" style="mask-type:luminance" maskUnits="userSpaceOnUse" x="0" y="15" width="144" height="18">
<path d="M143.143 15H0.857178V33H143.143V15Z" fill="white"/>
</mask>
<g mask="url(#mask0_203_351)">
<path fill-rule="evenodd" clip-rule="evenodd" d="M16.1834 14.9434H6.32788V20.2036H16.1834V32.5107H21.5715V14.9434H21.5704H16.1834Z" fill="#94A3B8"/>
<path d="M9.01784 21.4766C5.78165 21.4766 3.1582 24.0378 3.1582 27.1971C3.1582 30.3566 5.78165 32.9177 9.01784 32.9177C12.254 32.9177 14.8774 30.3566 14.8774 27.1972H9.01798L9.01784 21.4766Z" fill="#94A3B8"/>
<path d="M34.8133 14.9434L29.6434 32.5015H33.2139L34.3563 28.4603H39.6119L40.7259 32.5015H44.6103L39.4405 14.9434H34.8133ZM36.9555 19.2353H37.0698L38.7836 25.5061H35.1847L36.9555 19.2353Z" fill="#94A3B8"/>
<path d="M44.8793 28.4324C44.9935 31.1916 47.0215 32.7523 50.1063 32.7523C53.1339 32.7523 54.9905 31.303 54.9905 28.8783C54.9905 26.816 53.7623 25.7848 51.4487 25.1717L49.6493 24.6979C48.8495 24.447 48.3924 24.1962 48.3924 23.4995C48.3924 22.8027 48.9638 22.4126 49.8206 22.4126C51.106 22.4126 51.6773 23.1929 51.6773 24.3077H54.762C54.7335 21.7716 53.1054 19.9043 49.7921 19.9043C46.9644 19.9043 45.1078 21.5207 45.1078 23.806C45.1078 25.9799 46.3645 27.039 48.4782 27.5684L50.4204 28.0423C51.2773 28.2652 51.6773 28.516 51.6773 29.1571C51.6773 29.8817 51.0488 30.244 50.1063 30.244C48.9066 30.244 48.0783 29.6588 47.9926 28.4324H44.8793Z" fill="#94A3B8"/>
<path d="M55.7856 28.4324C55.8998 31.1916 57.9278 32.7523 61.0126 32.7523C64.0403 32.7523 65.8968 31.303 65.8968 28.8783C65.8968 26.816 64.6687 25.7848 62.3551 25.1717L60.5556 24.6979C59.7558 24.447 59.2988 24.1962 59.2988 23.4995C59.2988 22.8027 59.8701 22.4126 60.727 22.4126C62.0123 22.4126 62.5836 23.1929 62.5836 24.3077H65.6683C65.6398 21.7716 64.0117 19.9043 60.6984 19.9043C57.8707 19.9043 56.0142 21.5207 56.0142 23.806C56.0142 25.9799 57.2709 27.039 59.3845 27.5684L61.3268 28.0423C62.1837 28.2652 62.5836 28.516 62.5836 29.1571C62.5836 29.8817 61.9551 30.244 61.0126 30.244C59.8129 30.244 58.9847 29.6588 58.899 28.4324H55.7856Z" fill="#94A3B8"/>
<path d="M72.49 32.7523C75.6319 32.7523 77.3742 30.9686 77.6028 28.0423H74.3466C74.3181 29.2964 73.7182 29.9654 72.5185 29.9654C71.119 29.9654 70.4049 28.9899 70.4049 27.0668H77.6885V26.0914C77.6885 22.3011 75.9746 19.9043 72.3472 19.9043C69.0053 19.9043 66.8917 22.3011 66.8917 26.0914V26.5652C66.8917 30.3555 69.0053 32.7523 72.49 32.7523ZM70.4049 25.0881C70.4049 23.5274 71.119 22.6913 72.3472 22.6913C73.6039 22.6913 74.2609 23.5274 74.2609 25.0881H70.4049Z" fill="#94A3B8"/>
<path d="M90.0009 25.5062C90.0009 24.1683 90.372 22.8306 91.8009 22.8306C93.0857 22.8306 93.372 23.7503 93.372 25.116V32.5015H97.0277V23.9454C97.0277 21.6879 95.9991 19.9043 93.1714 19.9043C91.4289 19.9043 90.2863 20.7125 89.6014 21.6879C89.0589 20.7404 88.0303 19.9043 86.2307 19.9043C84.7169 19.9043 83.4887 20.6288 82.946 21.6601V20.1551H79.2899V32.5015H82.946V25.5062C82.946 24.1683 83.3458 22.8306 84.774 22.8306C86.0593 22.8306 86.345 23.7503 86.345 25.116V32.5015H90.0009V25.5062Z" fill="#94A3B8"/>
<path d="M106.947 26.8995C106.947 28.8783 106.233 29.9095 104.863 29.9095C103.52 29.9095 102.806 28.8783 102.806 27.3455V25.311C102.806 23.7781 103.52 22.7191 104.863 22.7191C106.233 22.7191 106.947 23.7781 106.947 25.7569V26.8995ZM102.806 30.9685C103.406 31.9998 104.491 32.7523 106.148 32.7523C109.033 32.7523 110.575 30.5784 110.575 26.7601V25.8962C110.575 22.0781 109.033 19.9042 106.148 19.9042C104.491 19.9042 103.406 20.6567 102.806 21.6879V14.9434H99.1492V32.5015H102.406L102.806 30.9685Z" fill="#94A3B8"/>
<path d="M112.176 14.9434V32.5015H115.833V14.9434H112.176Z" fill="#94A3B8"/>
<path d="M123.033 32.7523C126.174 32.7523 127.917 30.9686 128.146 28.0423H124.889C124.861 29.2964 124.261 29.9654 123.061 29.9654C121.662 29.9654 120.948 28.9899 120.948 27.0668H128.231V26.0914C128.231 22.3011 126.518 19.9043 122.89 19.9043C119.547 19.9043 117.435 22.3011 117.435 26.0914V26.5652C117.435 30.3555 119.547 32.7523 123.033 32.7523ZM120.948 25.0881C120.948 23.5274 121.662 22.6913 122.89 22.6913C124.147 22.6913 124.803 23.5274 124.803 25.0881H120.948Z" fill="#94A3B8"/>
<path d="M132.89 25.7569C132.89 23.7781 133.603 22.7191 134.974 22.7191C136.287 22.7191 137.031 23.7781 137.031 25.311V27.3455C137.031 28.8783 136.287 29.9095 134.974 29.9095C133.603 29.9095 132.89 28.8783 132.89 26.8995V25.7569ZM137.031 32.5015H140.686V14.9434H137.031V21.6879C136.402 20.6567 135.345 19.9042 133.689 19.9042C130.803 19.9042 129.261 22.0781 129.261 25.8962V26.7601C129.261 30.5784 130.803 32.7523 133.689 32.7523C135.345 32.7523 136.402 31.9998 137.031 30.9685V32.5015Z" fill="#94A3B8"/>
</g>
</svg>
