<svg width="144" height="48" viewBox="0 0 144 48" fill="none" xmlns="http://www.w3.org/2000/svg">
<mask id="mask0_203_351" style="mask-type:luminance" maskUnits="userSpaceOnUse" x="22" y="17" width="100" height="14">
<path d="M122 17.6738H22V30.3244H122V17.6738Z" fill="white"/>
</mask>
<g mask="url(#mask0_203_351)">
<path fill-rule="evenodd" clip-rule="evenodd" d="M32.7714 17.6348H25.8448V21.3317H32.7714V29.9813H36.5582V17.6348H36.5575H32.7714Z" fill="#94A3B8"/>
<path d="M27.7354 22.2266C25.461 22.2266 23.6172 24.0266 23.6172 26.247C23.6172 28.4675 25.461 30.2675 27.7354 30.2675C30.0098 30.2675 31.8536 28.4675 31.8536 26.2471H27.7355L27.7354 22.2266Z" fill="#94A3B8"/>
<path d="M45.8648 17.6348L42.2313 29.9748H44.7407L45.5436 27.1346H49.2373L50.0202 29.9748H52.7502L49.1168 17.6348H45.8648ZM47.3704 20.6512H47.4507L48.6551 25.0583H46.1258L47.3704 20.6512Z" fill="#94A3B8"/>
<path d="M52.9392 27.1148C53.0195 29.0539 54.4448 30.1508 56.6128 30.1508C58.7407 30.1508 60.0455 29.1322 60.0455 27.4281C60.0455 25.9787 59.1823 25.254 57.5563 24.8231L56.2916 24.4901C55.7295 24.3137 55.4083 24.1375 55.4083 23.6478C55.4083 23.1581 55.8099 22.8839 56.412 22.8839C57.3154 22.8839 57.7169 23.4324 57.7169 24.2159H59.8849C59.8649 22.4334 58.7206 21.1211 56.392 21.1211C54.4046 21.1211 53.0998 22.2571 53.0998 23.8633C53.0998 25.3911 53.9831 26.1354 55.4685 26.5075L56.8336 26.8406C57.4358 26.9972 57.7169 27.1735 57.7169 27.624C57.7169 28.1333 57.2752 28.388 56.6128 28.388C55.7697 28.388 55.1875 27.9766 55.1273 27.1148H52.9392Z" fill="#94A3B8"/>
<path d="M60.6044 27.1148C60.6846 29.0539 62.1099 30.1508 64.2779 30.1508C66.4058 30.1508 67.7106 29.1322 67.7106 27.4281C67.7106 25.9787 66.8475 25.254 65.2215 24.8231L63.9567 24.4901C63.3947 24.3137 63.0735 24.1375 63.0735 23.6478C63.0735 23.1581 63.475 22.8839 64.0772 22.8839C64.9805 22.8839 65.382 23.4324 65.382 24.2159H67.55C67.53 22.4334 66.3858 21.1211 64.0571 21.1211C62.0698 21.1211 60.765 22.2571 60.765 23.8633C60.765 25.3911 61.6482 26.1354 63.1337 26.5075L64.4988 26.8406C65.101 26.9972 65.382 27.1735 65.382 27.624C65.382 28.1333 64.9403 28.388 64.2779 28.388C63.4348 28.388 62.8527 27.9766 62.7924 27.1148H60.6044Z" fill="#94A3B8"/>
<path d="M72.3443 30.1508C74.5525 30.1508 75.777 28.8972 75.9376 26.8406H73.6492C73.6291 27.722 73.2075 28.1921 72.3644 28.1921C71.3808 28.1921 70.8789 27.5066 70.8789 26.155H75.9979V25.4695C75.9979 22.8056 74.7933 21.1211 72.2439 21.1211C69.8952 21.1211 68.4098 22.8056 68.4098 25.4695V25.8024C68.4098 28.4663 69.8952 30.1508 72.3443 30.1508ZM70.8789 24.7643C70.8789 23.6674 71.3808 23.0798 72.2439 23.0798C73.1272 23.0798 73.5889 23.6674 73.5889 24.7643H70.8789Z" fill="#94A3B8"/>
<path d="M84.6512 25.0581C84.6512 24.1179 84.912 23.1777 85.9162 23.1777C86.8193 23.1777 87.0205 23.8241 87.0205 24.7839V29.9745H89.5897V23.9612C89.5897 22.3746 88.8668 21.1211 86.8795 21.1211C85.6548 21.1211 84.8518 21.6891 84.3705 22.3746C83.9891 21.7087 83.2662 21.1211 82.0015 21.1211C80.9376 21.1211 80.0744 21.6303 79.6929 22.3551V21.2974H77.1234V29.9745H79.6929V25.0581C79.6929 24.1179 79.974 23.1777 80.9777 23.1777C81.881 23.1777 82.0818 23.8241 82.0818 24.7839V29.9745H84.6512V25.0581Z" fill="#94A3B8"/>
<path d="M96.5614 26.0377C96.5614 27.4284 96.0596 28.1531 95.0963 28.1531C94.1524 28.1531 93.6506 27.4284 93.6506 26.3511V24.9212C93.6506 23.844 94.1524 23.0996 95.0963 23.0996C96.0596 23.0996 96.5614 23.844 96.5614 25.2346V26.0377ZM93.6506 28.8974C94.0723 29.6222 94.8349 30.1511 95.9994 30.1511C98.0271 30.1511 99.1108 28.6232 99.1108 25.9397V25.3326C99.1108 22.6491 98.0271 21.1213 95.9994 21.1213C94.8349 21.1213 94.0723 21.6502 93.6506 22.3749V17.6348H91.0807V29.9748H93.3698L93.6506 28.8974Z" fill="#94A3B8"/>
<path d="M100.236 17.6348V29.9748H102.806V17.6348H100.236Z" fill="#94A3B8"/>
<path d="M107.866 30.1508C110.074 30.1508 111.299 28.8972 111.46 26.8406H109.171C109.151 27.722 108.729 28.1921 107.886 28.1921C106.903 28.1921 106.401 27.5066 106.401 26.155H111.52V25.4695C111.52 22.8056 110.316 21.1211 107.766 21.1211C105.417 21.1211 103.932 22.8056 103.932 25.4695V25.8024C103.932 28.4663 105.417 30.1508 107.866 30.1508ZM106.401 24.7643C106.401 23.6674 106.903 23.0798 107.766 23.0798C108.649 23.0798 109.111 23.6674 109.111 24.7643H106.401Z" fill="#94A3B8"/>
<path d="M114.794 25.2346C114.794 23.844 115.295 23.0996 116.259 23.0996C117.182 23.0996 117.704 23.844 117.704 24.9212V26.3511C117.704 27.4284 117.182 28.1531 116.259 28.1531C115.295 28.1531 114.794 27.4284 114.794 26.0377V25.2346ZM117.704 29.9748H120.274V17.6348H117.704V22.3749C117.263 21.6502 116.52 21.1213 115.355 21.1213C113.328 21.1213 112.244 22.6491 112.244 25.3326V25.9397C112.244 28.6232 113.328 30.1511 115.355 30.1511C116.52 30.1511 117.263 29.6222 117.704 28.8974V29.9748Z" fill="#94A3B8"/>
</g>
</svg>
