<svg width="144" height="48" viewBox="0 0 144 48" fill="none" xmlns="http://www.w3.org/2000/svg">
<mask id="mask0_203_344" style="mask-type:luminance" maskUnits="userSpaceOnUse" x="31" y="13" width="82" height="22">
<path d="M112.615 13H31.3846V35H112.615V13Z" fill="white"/>
</mask>
<g mask="url(#mask0_203_344)">
<path d="M86.343 17.5459C84.9004 17.5459 83.7916 18.0741 82.7572 19.1786V17.8043H79.9356V31.3343H82.9696V23.486C82.9696 21.6887 84.0095 20.5529 85.5845 20.5529C85.8253 20.5537 86.0654 20.5784 86.3016 20.6267L88.4282 17.7532C87.7419 17.6223 87.0464 17.5492 86.3485 17.5346L86.343 17.5459ZM112.607 17.8043H109.104L105.86 22.2168L102.617 17.8015H99.1082L104.073 24.6162L99.1082 31.3286H102.694L105.847 27.0467L108.999 31.3286H112.618L107.631 24.6275L112.607 17.8043ZM48.6569 14.7604C47.617 16.1802 47.366 16.6657 46.362 16.6657H31.3846V35H37.2625C37.928 34.9942 38.5834 34.8327 39.1793 34.5278C39.7752 34.2227 40.296 33.7822 40.702 33.2396C41.7777 31.7744 41.9212 31.3343 42.9583 31.3343H57.9715V13H52.0605C51.3995 13.0022 50.7481 13.1624 50.1575 13.4678C49.5668 13.7733 49.0531 14.2158 48.6569 14.7604ZM53.3156 26.6038H47.0433C46.3761 26.588 45.7148 26.7361 45.1142 27.0358C44.5137 27.3355 43.9912 27.7782 43.5899 28.3273C42.5142 29.7953 42.2991 30.2354 41.2951 30.2354H36.0075V21.4445H42.277C42.9431 21.4428 43.6 21.2831 44.1965 20.9778C44.793 20.6724 45.3131 20.2298 45.7166 19.684C46.7923 18.2643 47.0791 17.8128 48.0445 17.8128H53.3128L53.3156 26.6038ZM75.8175 22.0947C76.505 21.7146 77.0783 21.148 77.475 20.4561C77.8718 19.7644 78.077 18.9739 78.0682 18.1706C78.0682 15.5299 76.0988 13 73.2302 13H64.6382V31.3343H73.2385C76.3553 31.3343 78.504 29.0627 78.504 26.2006C78.504 24.514 77.751 23.046 75.8147 22.0947H75.8175ZM67.6833 15.848H72.9874C74.3142 15.848 75.1003 17.1314 75.1003 18.2672C75.0889 18.888 74.8433 19.4798 74.4155 19.9176C73.9878 20.3553 73.4113 20.6046 72.8082 20.6125H67.6833V15.848ZM72.8082 28.4636H67.6833V23.486H72.9874C73.6278 23.4911 74.242 23.7485 74.7037 24.2054C75.1654 24.6621 75.4396 25.2837 75.4699 25.9422C75.4589 27.3363 74.0605 28.475 72.8054 28.475L72.8082 28.4636Z" fill="#94A3B8"/>
<path d="M96.0605 27.4441C95.7735 27.8593 95.3903 28.1941 94.9457 28.4183C94.5012 28.6424 94.0093 28.7487 93.5147 28.7275C91.8321 28.7275 90.4337 27.5548 90.4337 25.7575H99.536C99.6608 25.3421 99.7214 24.9089 99.7153 24.4741C99.7153 20.3682 97.2328 17.543 93.5174 17.543C89.8627 17.543 87.2838 20.2205 87.2838 24.582C87.2838 28.8411 89.7662 31.5868 93.5892 31.5868C96.2757 31.5868 98.6423 30.2296 99.3236 27.4441H96.0605ZM93.5147 20.4023C95.2 20.4023 96.4881 21.5011 96.4522 23.1537H90.4806C90.4806 21.5409 91.8349 20.4023 93.5147 20.4023Z" fill="#94A3B8"/>
</g>
</svg>
