<svg width="226" height="46" viewBox="0 0 226 46" fill="none" xmlns="http://www.w3.org/2000/svg">
<rect x="18.6855" y="36.7036" width="29.4123" height="8.99589" fill="#f472b6"/>
<circle cx="18.6853" cy="27.7278" r="17.9715" fill="#f472b6"/>
<circle cx="46.5872" cy="22.9996" r="22.6995" fill="#f9a8d4"/>
<path d="M97.9171 35.956C95.2318 35.956 92.9264 35.386 91.0011 34.246C89.0758 33.0807 87.5938 31.472 86.5551 29.42C85.5164 27.3427 84.9971 24.9487 84.9971 22.238C84.9971 19.5273 85.5164 17.1333 86.5551 15.056C87.5938 12.9787 89.0758 11.3573 91.0011 10.192C92.9264 9.02667 95.2318 8.444 97.9171 8.444C101.109 8.444 103.718 9.242 105.745 10.838C107.797 12.4087 109.076 14.6253 109.583 17.488H104.225C103.896 16.044 103.186 14.9167 102.097 14.106C101.033 13.27 99.6144 12.852 97.8411 12.852C95.3838 12.852 93.4584 13.688 92.0651 15.36C90.6718 17.032 89.9751 19.3247 89.9751 22.238C89.9751 25.1513 90.6718 27.444 92.0651 29.116C93.4584 30.7627 95.3838 31.586 97.8411 31.586C99.6144 31.586 101.033 31.206 102.097 30.446C103.186 29.6607 103.896 28.584 104.225 27.216H109.583C109.076 29.952 107.797 32.0927 105.745 33.638C103.718 35.1833 101.109 35.956 97.9171 35.956ZM113.775 35.5V8.14H118.639V35.5H113.775ZM132.653 35.956C130.829 35.956 129.182 35.538 127.713 34.702C126.269 33.866 125.116 32.7133 124.255 31.244C123.419 29.7493 123.001 28.0267 123.001 26.076C123.001 24.1253 123.431 22.4153 124.293 20.946C125.154 19.4513 126.307 18.286 127.751 17.45C129.22 16.614 130.867 16.196 132.691 16.196C134.489 16.196 136.111 16.614 137.555 17.45C139.024 18.286 140.177 19.4513 141.013 20.946C141.874 22.4153 142.305 24.1253 142.305 26.076C142.305 28.0267 141.874 29.7493 141.013 31.244C140.177 32.7133 139.024 33.866 137.555 34.702C136.085 35.538 134.451 35.956 132.653 35.956ZM132.653 31.738C133.919 31.738 135.021 31.2693 135.959 30.332C136.896 29.3693 137.365 27.9507 137.365 26.076C137.365 24.2013 136.896 22.7953 135.959 21.858C135.021 20.8953 133.932 20.414 132.691 20.414C131.399 20.414 130.284 20.8953 129.347 21.858C128.435 22.7953 127.979 24.2013 127.979 26.076C127.979 27.9507 128.435 29.3693 129.347 30.332C130.284 31.2693 131.386 31.738 132.653 31.738ZM153.722 35.956C151.366 35.956 149.542 35.2213 148.25 33.752C146.983 32.2827 146.35 30.1293 146.35 27.292V16.652H151.176V26.836C151.176 28.4573 151.505 29.6987 152.164 30.56C152.822 31.4213 153.861 31.852 155.28 31.852C156.622 31.852 157.724 31.3707 158.586 30.408C159.472 29.4453 159.916 28.1027 159.916 26.38V16.652H164.78V35.5H160.486L160.106 32.308C159.523 33.4227 158.674 34.3093 157.56 34.968C156.47 35.6267 155.191 35.956 153.722 35.956ZM178.437 35.956C176.663 35.956 175.08 35.5253 173.687 34.664C172.293 33.8027 171.191 32.6247 170.381 31.13C169.57 29.6353 169.165 27.938 169.165 26.038C169.165 24.138 169.57 22.4533 170.381 20.984C171.191 19.4893 172.293 18.324 173.687 17.488C175.08 16.6267 176.663 16.196 178.437 16.196C179.855 16.196 181.097 16.462 182.161 16.994C183.225 17.526 184.086 18.2733 184.745 19.236V8.14H189.609V35.5H185.277L184.745 32.802C184.137 33.638 183.326 34.3727 182.313 35.006C181.325 35.6393 180.033 35.956 178.437 35.956ZM179.463 31.7C181.033 31.7 182.313 31.1807 183.301 30.142C184.314 29.078 184.821 27.7227 184.821 26.076C184.821 24.4293 184.314 23.0867 183.301 22.048C182.313 20.984 181.033 20.452 179.463 20.452C177.917 20.452 176.638 20.9713 175.625 22.01C174.611 23.0487 174.105 24.3913 174.105 26.038C174.105 27.6847 174.611 29.04 175.625 30.104C176.638 31.168 177.917 31.7 179.463 31.7ZM194.562 35.5V8.14H199.426V35.5H194.562ZM206.752 43.86L211.122 34.246H209.982L202.648 16.652H207.93L213.212 29.914L218.722 16.652H223.89L211.92 43.86H206.752Z" fill="#f472b6"/>
</svg>
