<svg width="144" height="48" viewBox="0 0 144 48" fill="none" xmlns="http://www.w3.org/2000/svg">
<mask id="mask0_203_314" style="mask-type:luminance" maskUnits="userSpaceOnUse" x="23" y="16" width="98" height="16">
<path d="M120.348 16H23.6521V32H120.348V16Z" fill="white"/>
</mask>
<g mask="url(#mask0_203_314)">
<path d="M62.9696 20.6895H59.9931C59.947 20.6891 59.9017 20.7001 59.861 20.7215C59.8204 20.7428 59.7857 20.7739 59.7602 20.8119L57.5467 24.0755L55.3333 20.8119C55.3077 20.774 55.2731 20.743 55.2324 20.7216C55.1917 20.7002 55.1463 20.6892 55.1003 20.6895H52.1554C52.1047 20.6892 52.055 20.7025 52.0115 20.7281C51.968 20.7537 51.9324 20.7906 51.9084 20.8348C51.8844 20.879 51.8732 20.9288 51.8756 20.9789C51.8781 21.029 51.8942 21.0775 51.9223 21.1192L55.4673 26.3339L51.849 31.3199C51.8188 31.361 51.8007 31.4096 51.7967 31.4601C51.7928 31.5108 51.803 31.5615 51.8262 31.6067C51.8495 31.6519 51.885 31.6899 51.9287 31.7164C51.9724 31.7428 52.0226 31.7567 52.0738 31.7566H55.0759C55.1201 31.7567 55.1637 31.7462 55.203 31.7263C55.2423 31.7062 55.2763 31.6769 55.3018 31.6411L57.5724 28.4803L59.8428 31.6411C59.8685 31.6768 59.9025 31.7059 59.9417 31.726C59.981 31.7462 60.0246 31.7567 60.0689 31.7566H63.0512C63.1024 31.7567 63.1526 31.7428 63.1963 31.7164C63.24 31.6899 63.2754 31.6519 63.2987 31.6067C63.322 31.5615 63.3322 31.5108 63.3282 31.4601C63.3242 31.4096 63.3061 31.361 63.2759 31.3199L59.6577 26.3339L63.2003 21.1192C63.2283 21.0777 63.2444 21.0294 63.247 20.9795C63.2495 20.9296 63.2384 20.8799 63.2148 20.8358C63.191 20.7917 63.1557 20.7548 63.1126 20.729C63.0695 20.7032 63.02 20.6896 62.9696 20.6895Z" fill="#94A3B8"/>
<path d="M69.7143 27.286V23.3456H72.1607C72.2343 23.3456 72.305 23.3166 72.3571 23.2651C72.4093 23.2136 72.4388 23.1436 72.4392 23.0706V20.9658C72.4392 20.8926 72.4098 20.8223 72.3576 20.7706C72.3054 20.7187 72.2346 20.6897 72.1607 20.6897H69.7143V17.8882C69.7139 17.8152 69.6845 17.7453 69.6324 17.6937C69.5802 17.6422 69.5095 17.6133 69.4359 17.6133H66.8998C66.8259 17.6133 66.7552 17.6424 66.7029 17.6942C66.6507 17.7459 66.6213 17.8162 66.6213 17.8894C66.6213 21.0085 66.88 20.6897 64.5909 20.6897C64.5434 20.6895 64.4964 20.6986 64.4525 20.7165C64.4087 20.7343 64.3688 20.7606 64.3351 20.7937C64.3015 20.8269 64.2748 20.8663 64.2564 20.9097C64.2382 20.9531 64.2287 20.9996 64.2285 21.0467V22.9886C64.2285 23.0356 64.2379 23.0821 64.2561 23.1255C64.2742 23.1688 64.3008 23.2083 64.3344 23.2414C64.3679 23.2746 64.4078 23.3009 64.4516 23.3187C64.4954 23.3366 64.5423 23.3457 64.5896 23.3456H66.6225V27.8833C66.6225 30.5832 68.5388 31.8897 70.9328 31.8897C71.5208 31.9023 72.108 31.8405 72.6803 31.706C72.7403 31.6907 72.7937 31.6561 72.8317 31.6076C72.8698 31.5592 72.8908 31.4995 72.8911 31.438V29.3378C72.8907 29.2957 72.8806 29.2542 72.8616 29.2165C72.8427 29.1789 72.8154 29.1461 72.7817 29.1205C72.748 29.0949 72.7089 29.0773 72.6673 29.0688C72.6257 29.0604 72.5828 29.0616 72.5416 29.072C72.2416 29.1387 71.9347 29.1706 71.6271 29.1668C70.2968 29.1668 69.7143 28.6353 69.7143 27.286Z" fill="#94A3B8"/>
<path d="M82.3808 21.9298C81.8846 21.2216 80.6893 20.4465 79.1341 20.4465C76.1356 20.4465 73.8359 23.0804 73.8359 26.2227C73.8359 29.3649 76.1356 31.9989 79.1341 31.9989C80.6893 31.9989 81.8846 31.2237 82.3808 30.5155V31.397C82.3808 31.444 82.3902 31.4906 82.4083 31.534C82.4265 31.5775 82.4531 31.617 82.4867 31.6502C82.5201 31.6835 82.56 31.7099 82.6039 31.7278C82.6476 31.7458 82.6946 31.7551 82.742 31.7551H85.1884C85.2622 31.7551 85.3331 31.726 85.3853 31.6742C85.4375 31.6225 85.4668 31.5522 85.4668 31.479V16.2761C85.4668 16.2029 85.4375 16.1326 85.3853 16.0809C85.3331 16.0291 85.2622 16 85.1884 16H82.6582C82.6217 16 82.5854 16.0072 82.5518 16.021C82.518 16.0349 82.4874 16.0553 82.4617 16.0809C82.4359 16.1066 82.4155 16.137 82.4016 16.1705C82.3878 16.204 82.3808 16.2399 82.3808 16.2761V21.9298ZM79.7877 29.2344C78.0974 29.2344 76.9475 27.9498 76.9475 26.2239C76.9475 24.4979 78.0974 23.2133 79.7877 23.2133C81.478 23.2133 82.6278 24.4968 82.6278 26.2239C82.6278 27.9509 81.4804 29.2344 79.7877 29.2344Z" fill="#94A3B8"/>
<path d="M119.286 20.557C118.023 20.557 116.873 21.3761 116.49 22.4608V20.966C116.49 20.8927 116.461 20.8225 116.408 20.7707C116.356 20.7189 116.285 20.6899 116.212 20.6899H113.679C113.605 20.6899 113.534 20.7189 113.482 20.7707C113.43 20.8225 113.4 20.8927 113.4 20.966V31.4785C113.4 31.5518 113.43 31.622 113.482 31.6738C113.534 31.7256 113.605 31.7547 113.679 31.7547H116.212C116.285 31.7547 116.356 31.7256 116.408 31.6738C116.461 31.622 116.49 31.5518 116.49 31.4785V26.4649C116.49 24.65 117.459 23.5202 118.925 23.5202C119.279 23.5203 119.631 23.5676 119.973 23.6611C120.014 23.6721 120.057 23.6736 120.099 23.6654C120.141 23.6572 120.18 23.6396 120.214 23.6138C120.248 23.5882 120.275 23.5551 120.294 23.5172C120.312 23.4793 120.322 23.4376 120.322 23.3954V20.9047C120.322 20.8408 120.299 20.7788 120.259 20.7294C120.218 20.6799 120.161 20.646 120.097 20.6332C119.83 20.5788 119.558 20.5532 119.286 20.557Z" fill="#94A3B8"/>
<path d="M92.932 20.4453C89.662 20.4453 87.0024 22.9868 87.0024 26.2215C87.0024 29.4562 89.662 31.9977 92.932 31.9977C96.2018 31.9977 98.8606 29.4562 98.8606 26.2215C98.8606 22.9868 96.2011 20.4453 92.932 20.4453ZM92.932 29.1661C91.308 29.1661 90.114 27.9266 90.114 26.2226C90.114 24.5187 91.308 23.2791 92.932 23.2791C94.5559 23.2791 95.7281 24.5187 95.7281 26.2226C95.7281 27.9266 94.5545 29.1661 92.932 29.1661Z" fill="#94A3B8"/>
<path d="M105.944 20.4453C102.676 20.4453 100.015 22.9868 100.015 26.2215C100.015 29.4562 102.676 31.9977 105.944 31.9977C109.213 31.9977 111.874 29.4562 111.874 26.2215C111.874 22.9868 109.206 20.4453 105.944 20.4453ZM105.944 29.1661C104.321 29.1661 103.126 27.9266 103.126 26.2226C103.126 24.5187 104.314 23.2791 105.944 23.2791C107.576 23.2791 108.741 24.5187 108.741 26.2226C108.741 27.9266 107.562 29.1661 105.944 29.1661Z" fill="#94A3B8"/>
<path d="M33.079 20.3125C31.003 20.3125 29.2346 21.2575 28.2421 22.7039C28.1593 22.8194 28.0184 23.0816 27.8297 23.0827C26.9222 23.0897 26.8662 21.9795 26.8371 20.9895C26.8338 20.9186 26.8033 20.8516 26.7517 20.8024C26.7001 20.7532 26.6314 20.7254 26.5599 20.725L23.9317 20.7076C23.8946 20.7076 23.8579 20.7149 23.8236 20.7291C23.7894 20.7434 23.7584 20.7642 23.7324 20.7904C23.7063 20.8166 23.6858 20.8478 23.6721 20.882C23.6583 20.9161 23.6515 20.9527 23.6521 20.9895C23.7104 23.4074 24.1589 25.0501 27.1144 25.704C27.1931 25.7221 27.2633 25.7663 27.3133 25.8294C27.3633 25.8924 27.3901 25.9704 27.3893 26.0506V31.4802C27.3893 31.5164 27.3965 31.5522 27.4105 31.5855C27.4246 31.6188 27.4451 31.6491 27.471 31.6746C27.4969 31.7 27.5276 31.7202 27.5614 31.7338C27.5951 31.7474 27.6313 31.7542 27.6677 31.7539H30.2225C30.2963 31.7539 30.3671 31.7248 30.4194 31.6731C30.4716 31.6212 30.5009 31.551 30.5009 31.4778V25.8715C30.5009 24.625 31.3921 23.2145 33.0824 23.2145C34.6913 23.2145 35.6629 24.6285 35.6629 25.8715V31.4802C35.6629 31.5533 35.6921 31.6236 35.7443 31.6754C35.7965 31.7272 35.8673 31.7563 35.9413 31.7563H38.4937C38.5673 31.7559 38.6378 31.7267 38.6898 31.675C38.7418 31.6232 38.7709 31.5531 38.7709 31.4802V25.4556C38.7698 22.5745 36.2908 20.3125 33.079 20.3125Z" fill="#94A3B8"/>
<path d="M45.9972 20.4453C42.57 20.4453 40.0676 22.9464 40.0676 26.2215C40.0676 29.7184 42.6829 31.9365 46.0415 31.9977C48.6789 32.0461 50.4345 30.549 50.8516 30.0245C50.8737 29.9955 50.8897 29.9624 50.8987 29.9271C50.9076 29.8919 50.9094 29.8551 50.9039 29.8192C50.8983 29.7833 50.8856 29.7487 50.8664 29.7177C50.8472 29.6867 50.822 29.6599 50.7922 29.6387L49.0389 28.2802C48.8479 28.0919 48.6998 28.1935 48.5858 28.2859C48.305 28.5111 47.7703 29.1616 46.0648 29.2309C44.5771 29.2909 43.2456 28.4119 43.0662 26.9285H51.2418C51.3124 26.9281 51.3803 26.9012 51.4317 26.8532C51.4832 26.8052 51.5143 26.7396 51.519 26.6697C51.5423 26.3428 51.5423 26.1014 51.5423 25.8888C51.5412 22.3053 48.9504 20.4453 45.9972 20.4453ZM43.178 24.8722C43.4716 23.5217 44.7565 22.9464 45.9063 22.9464C47.0561 22.9464 48.1839 23.5668 48.4541 24.8722H43.178Z" fill="#94A3B8"/>
</g>
</svg>
