<svg width="144" height="48" viewBox="0 0 144 48" fill="none" xmlns="http://www.w3.org/2000/svg">
<mask id="mask0_203_329" style="mask-type:luminance" maskUnits="userSpaceOnUse" x="25" y="15" width="94" height="18">
<path d="M119 15.0977H25V32.9041H119V15.0977Z" fill="white"/>
</mask>
<g mask="url(#mask0_203_329)">
<path d="M62.7216 22.9037H59.8145V20.2484H62.7216V15.0977H65.9169V20.2484H69.1076V22.9037H65.9169V28.9337C65.9169 29.703 66.1814 29.9263 66.8779 29.9263H69.6362V32.656H65.7969C63.6585 32.656 62.7216 31.7131 62.7216 29.9263V22.9037Z" fill="#94A3B8"/>
<path d="M75.4559 20C77.2579 20 78.5071 20.8685 79.0597 21.9852V20.2481H82.1828V32.6557H79.0597V30.9187C78.4591 32.0354 77.2098 32.9038 75.4559 32.9038C72.9335 32.9038 70.2908 30.6208 70.2908 26.4518C70.2908 22.2829 72.7172 20 75.4559 20ZM76.3209 30.2981C77.8344 30.2981 79.0597 28.8341 79.0597 26.4518C79.0597 24.0697 77.8344 22.6056 76.3209 22.6056H76.1286C74.6152 22.6056 73.4138 24.2681 73.4138 26.427C73.4138 28.6108 74.6152 30.2981 76.1286 30.2981H76.3209Z" fill="#94A3B8"/>
<path d="M86.177 22.9037H83.27V20.2484H86.177V15.0977H89.3723V20.2484H92.5631V22.9037H89.3723V28.9337C89.3723 29.703 89.6366 29.9263 90.3332 29.9263H93.0917V32.656H89.2521C87.1141 32.656 86.177 31.7131 86.177 29.9263V22.9037Z" fill="#94A3B8"/>
<path d="M98.8871 20C100.689 20 101.938 20.8685 102.491 21.9852V20.2481H105.614V32.6557H102.491V30.9187C101.891 32.0354 100.641 32.9038 98.8871 32.9038C96.3644 32.9038 93.7217 30.6208 93.7217 26.4518C93.7217 22.2829 96.1484 20 98.8871 20ZM99.7522 30.2981C101.266 30.2981 102.491 28.8341 102.491 26.4518C102.491 24.0697 101.266 22.6056 99.7522 22.6056H99.5598C98.0462 22.6056 96.8451 24.2681 96.8451 26.427C96.8451 28.6108 98.0462 30.2981 99.5598 30.2981H99.7522Z" fill="#94A3B8"/>
<path d="M106.696 20.248H109.771V22.6055C110.323 20.9926 111.237 20.248 112.99 20.248H114.571V23.2011H112.822C110.924 23.2011 109.891 24.3177 109.891 26.427V32.6557H106.696V20.248Z" fill="#94A3B8"/>
<path d="M119 15.0977H115.564V18.5469H119V15.0977Z" fill="#94A3B8"/>
<path d="M118.88 20.248H115.685V32.6557H118.88V20.248Z" fill="#94A3B8"/>
<path d="M39.9091 27.5898H34.9395V32.7231H39.9091V27.5898Z" fill="#94A3B8"/>
<path d="M39.909 21.3496H29.9697V26.4828H39.909V21.3496Z" fill="#94A3B8"/>
<path d="M49.8484 15.1074H25V20.2406H49.8484V15.1074Z" fill="#94A3B8"/>
</g>
</svg>
