<svg width="160" height="48" viewBox="0 0 160 48" fill="none" xmlns="http://www.w3.org/2000/svg">
<path d="M51.3642 36.3286L61.0922 9.72861H66.5642L76.2922 36.3286H71.1242L68.9962 30.1726H58.6222L56.4562 36.3286H51.3642ZM59.9522 26.3726H67.6662L63.7902 15.3146L59.9522 26.3726ZM79.6048 44.6886V17.4806H83.9368L84.4688 20.1786C85.0768 19.3426 85.8748 18.6079 86.8628 17.9746C87.8761 17.3413 89.1808 17.0246 90.7768 17.0246C92.5501 17.0246 94.1334 17.4553 95.5268 18.3166C96.9201 19.1779 98.0221 20.3559 98.8328 21.8506C99.6434 23.3453 100.049 25.0426 100.049 26.9426C100.049 28.8426 99.6434 30.5399 98.8328 32.0346C98.0221 33.5039 96.9201 34.6693 95.5268 35.5306C94.1334 36.3666 92.5501 36.7846 90.7768 36.7846C89.3581 36.7846 88.1168 36.5186 87.0528 35.9866C85.9888 35.4546 85.1274 34.7073 84.4688 33.7446V44.6886H79.6048ZM89.7508 32.5286C91.2961 32.5286 92.5754 32.0093 93.5888 30.9706C94.6021 29.9319 95.1088 28.5893 95.1088 26.9426C95.1088 25.2959 94.6021 23.9406 93.5888 22.8766C92.5754 21.8126 91.2961 21.2806 89.7508 21.2806C88.1801 21.2806 86.8881 21.8126 85.8748 22.8766C84.8868 23.9153 84.3928 25.2579 84.3928 26.9046C84.3928 28.5513 84.8868 29.9066 85.8748 30.9706C86.8881 32.0093 88.1801 32.5286 89.7508 32.5286ZM104.394 44.6886V17.4806H108.726L109.258 20.1786C109.866 19.3426 110.664 18.6079 111.652 17.9746C112.665 17.3413 113.97 17.0246 115.566 17.0246C117.339 17.0246 118.922 17.4553 120.316 18.3166C121.709 19.1779 122.811 20.3559 123.622 21.8506C124.432 23.3453 124.838 25.0426 124.838 26.9426C124.838 28.8426 124.432 30.5399 123.622 32.0346C122.811 33.5039 121.709 34.6693 120.316 35.5306C118.922 36.3666 117.339 36.7846 115.566 36.7846C114.147 36.7846 112.906 36.5186 111.842 35.9866C110.778 35.4546 109.916 34.7073 109.258 33.7446V44.6886H104.394ZM114.54 32.5286C116.085 32.5286 117.364 32.0093 118.378 30.9706C119.391 29.9319 119.898 28.5893 119.898 26.9426C119.898 25.2959 119.391 23.9406 118.378 22.8766C117.364 21.8126 116.085 21.2806 114.54 21.2806C112.969 21.2806 111.677 21.8126 110.664 22.8766C109.676 23.9153 109.182 25.2579 109.182 26.9046C109.182 28.5513 109.676 29.9066 110.664 30.9706C111.677 32.0093 112.969 32.5286 114.54 32.5286ZM129.183 36.3286V8.96861H134.047V36.3286H129.183ZM141.373 44.6886L145.743 35.0746H144.603L137.269 17.4806H142.551L147.833 30.7426L153.343 17.4806H158.511L146.541 44.6886H141.373Z" fill="#f472b6"/>
<rect x="0.509766" y="0.00244141" width="34.5875" height="47.9949" rx="8" fill="#f472b6"/>
<circle cx="17.8039" cy="38.6442" r="3.78729" fill="white"/>
</svg>
