<svg width="202" height="50" viewBox="0 0 202 50" fill="none" xmlns="http://www.w3.org/2000/svg">
<path d="M72.7422 38.5585C70.7915 38.5585 69.0688 38.2292 67.5742 37.5705C66.0795 36.8865 64.9015 35.9239 64.0402 34.6825C63.1788 33.4159 62.7355 31.8832 62.7102 30.0845H67.8402C67.8908 31.3259 68.3342 32.3772 69.1702 33.2385C70.0315 34.0745 71.2095 34.4925 72.7042 34.4925C73.9962 34.4925 75.0222 34.1885 75.7822 33.5805C76.5422 32.9472 76.9222 32.1112 76.9222 31.0725C76.9222 29.9832 76.5802 29.1345 75.8962 28.5265C75.2375 27.9185 74.3508 27.4245 73.2362 27.0445C72.1215 26.6645 70.9308 26.2592 69.6642 25.8285C67.6122 25.1192 66.0415 24.2072 64.9522 23.0925C63.8882 21.9779 63.3562 20.4959 63.3562 18.6465C63.3308 17.0759 63.6982 15.7332 64.4582 14.6185C65.2435 13.4785 66.3075 12.6045 67.6502 11.9965C68.9928 11.3632 70.5382 11.0465 72.2862 11.0465C74.0595 11.0465 75.6175 11.3632 76.9602 11.9965C78.3282 12.6299 79.3922 13.5165 80.1522 14.6565C80.9375 15.7965 81.3555 17.1519 81.4062 18.7225H76.2002C76.1748 17.7852 75.8075 16.9619 75.0982 16.2525C74.4142 15.5179 73.4515 15.1505 72.2102 15.1505C71.1462 15.1252 70.2468 15.3912 69.5122 15.9485C68.8028 16.4805 68.4482 17.2659 68.4482 18.3045C68.4482 19.1912 68.7268 19.9005 69.2842 20.4325C69.8415 20.9392 70.6015 21.3699 71.5642 21.7245C72.5268 22.0792 73.6288 22.4592 74.8702 22.8645C76.1875 23.3205 77.3908 23.8525 78.4802 24.4605C79.5695 25.0685 80.4435 25.8792 81.1022 26.8925C81.7608 27.8805 82.0902 29.1599 82.0902 30.7305C82.0902 32.1239 81.7355 33.4159 81.0262 34.6065C80.3168 35.7972 79.2655 36.7599 77.8722 37.4945C76.4788 38.2039 74.7688 38.5585 72.7422 38.5585ZM94.618 38.1025C92.642 38.1025 91.0587 37.6212 89.868 36.6585C88.6773 35.6959 88.082 33.9859 88.082 31.5285V23.3205H84.852V19.2545H88.082L88.652 14.2005H92.946V19.2545H98.038V23.3205H92.946V31.5665C92.946 32.4785 93.136 33.1119 93.516 33.4665C93.9213 33.7959 94.6053 33.9605 95.568 33.9605H97.924V38.1025H94.618ZM108.712 38.5585C107.091 38.5585 105.761 38.3052 104.722 37.7985C103.683 37.2665 102.911 36.5699 102.404 35.7085C101.897 34.8472 101.644 33.8972 101.644 32.8585C101.644 31.1105 102.328 29.6919 103.696 28.6025C105.064 27.5132 107.116 26.9685 109.852 26.9685H114.64V26.5125C114.64 25.2205 114.273 24.2705 113.538 23.6625C112.803 23.0545 111.891 22.7505 110.802 22.7505C109.814 22.7505 108.953 22.9912 108.218 23.4725C107.483 23.9285 107.027 24.6125 106.85 25.5245H102.1C102.227 24.1565 102.683 22.9659 103.468 21.9525C104.279 20.9392 105.317 20.1665 106.584 19.6345C107.851 19.0772 109.269 18.7985 110.84 18.7985C113.525 18.7985 115.641 19.4699 117.186 20.8125C118.731 22.1552 119.504 24.0552 119.504 26.5125V38.1025H115.362L114.906 35.0625C114.349 36.0759 113.563 36.9119 112.55 37.5705C111.562 38.2292 110.283 38.5585 108.712 38.5585ZM109.814 34.7585C111.207 34.7585 112.284 34.3025 113.044 33.3905C113.829 32.4785 114.323 31.3512 114.526 30.0085H110.384C109.092 30.0085 108.167 30.2492 107.61 30.7305C107.053 31.1865 106.774 31.7565 106.774 32.4405C106.774 33.1752 107.053 33.7452 107.61 34.1505C108.167 34.5559 108.902 34.7585 109.814 34.7585ZM124.146 38.1025V19.2545H128.478L128.934 22.7885C129.618 21.5725 130.542 20.6099 131.708 19.9005C132.898 19.1659 134.292 18.7985 135.888 18.7985V23.9285H134.52C133.456 23.9285 132.506 24.0932 131.67 24.4225C130.834 24.7519 130.175 25.3219 129.694 26.1325C129.238 26.9432 129.01 28.0705 129.01 29.5145V38.1025H124.146ZM147.61 38.1025C145.634 38.1025 144.051 37.6212 142.86 36.6585C141.67 35.6959 141.074 33.9859 141.074 31.5285V23.3205H137.844V19.2545H141.074L141.644 14.2005H145.938V19.2545H151.03V23.3205H145.938V31.5665C145.938 32.4785 146.128 33.1119 146.508 33.4665C146.914 33.7959 147.598 33.9605 148.56 33.9605H150.916V38.1025H147.61ZM162.274 38.5585C159.918 38.5585 158.094 37.8239 156.802 36.3545C155.536 34.8852 154.902 32.7319 154.902 29.8945V19.2545H159.728V29.4385C159.728 31.0599 160.058 32.3012 160.716 33.1625C161.375 34.0239 162.414 34.4545 163.832 34.4545C165.175 34.4545 166.277 33.9732 167.138 33.0105C168.025 32.0479 168.468 30.7052 168.468 28.9825V19.2545H173.332V38.1025H169.038L168.658 34.9105C168.076 36.0252 167.227 36.9119 166.112 37.5705C165.023 38.2292 163.744 38.5585 162.274 38.5585ZM178.325 46.4625V19.2545H182.657L183.189 21.9525C183.797 21.1165 184.595 20.3819 185.583 19.7485C186.597 19.1152 187.901 18.7985 189.497 18.7985C191.271 18.7985 192.854 19.2292 194.247 20.0905C195.641 20.9519 196.743 22.1299 197.553 23.6245C198.364 25.1192 198.769 26.8165 198.769 28.7165C198.769 30.6165 198.364 32.3139 197.553 33.8085C196.743 35.2779 195.641 36.4432 194.247 37.3045C192.854 38.1405 191.271 38.5585 189.497 38.5585C188.079 38.5585 186.837 38.2925 185.773 37.7605C184.709 37.2285 183.848 36.4812 183.189 35.5185V46.4625H178.325ZM188.471 34.3025C190.017 34.3025 191.296 33.7832 192.309 32.7445C193.323 31.7059 193.829 30.3632 193.829 28.7165C193.829 27.0699 193.323 25.7145 192.309 24.6505C191.296 23.5865 190.017 23.0545 188.471 23.0545C186.901 23.0545 185.609 23.5865 184.595 24.6505C183.607 25.6892 183.113 27.0319 183.113 28.6785C183.113 30.3252 183.607 31.6805 184.595 32.7445C185.609 33.7832 186.901 34.3025 188.471 34.3025Z" fill="#f472b6"/>
<path d="M0.923828 21.0569C0.923828 9.63621 10.1821 0.37793 21.6028 0.37793V28.9434C21.6028 40.364 12.3445 49.6223 0.923828 49.6223V21.0569Z" fill="#f472b6"/>
<path d="M24.6025 11.6147C24.6025 5.40881 29.6334 0.37793 35.8393 0.37793C42.0452 0.37793 47.0761 5.4088 47.0761 11.6147V12.2635C47.0761 18.4694 42.0452 23.5002 35.8393 23.5002C29.6334 23.5002 24.6025 18.4694 24.6025 12.2635V11.6147Z" fill="#f9a8d4"/>
<path d="M24.6025 37.7368C24.6025 31.5309 29.6334 26.5 35.8393 26.5C42.0452 26.5 47.0761 31.5309 47.0761 37.7368V38.3855C47.0761 44.5914 42.0452 49.6223 35.8393 49.6223C29.6334 49.6223 24.6025 44.5914 24.6025 38.3855V37.7368Z" fill="#f9a8d4"/>
</svg>
