<svg width="196" height="53" viewBox="0 0 196 53" fill="none" xmlns="http://www.w3.org/2000/svg">
<path d="M64.5869 38.5V11.9H75.2649C78.0263 11.9 80.1289 12.546 81.5729 13.838C83.0423 15.1047 83.7769 16.7387 83.7769 18.74C83.7769 20.412 83.3209 21.7547 82.4089 22.768C81.5223 23.756 80.4329 24.4273 79.1409 24.782C80.6609 25.086 81.9149 25.846 82.9029 27.062C83.8909 28.2527 84.3849 29.646 84.3849 31.242C84.3849 33.3447 83.6249 35.08 82.1049 36.448C80.5849 37.816 78.4316 38.5 75.6449 38.5H64.5869ZM69.4509 23.072H74.5429C75.9109 23.072 76.9623 22.7553 77.6969 22.122C78.4316 21.4887 78.7989 20.5893 78.7989 19.424C78.7989 18.3093 78.4316 17.4353 77.6969 16.802C76.9876 16.1433 75.9109 15.814 74.4669 15.814H69.4509V23.072ZM69.4509 34.548H74.8849C76.3289 34.548 77.4436 34.2187 78.2289 33.56C79.0396 32.876 79.4449 31.926 79.4449 30.71C79.4449 29.4687 79.0269 28.4933 78.1909 27.784C77.3549 27.0747 76.2276 26.72 74.8089 26.72H69.4509V34.548ZM88.4456 38.5V11.14H93.3096V38.5H88.4456ZM107.324 38.956C105.5 38.956 103.853 38.538 102.384 37.702C100.94 36.866 99.7869 35.7133 98.9256 34.244C98.0896 32.7493 97.6716 31.0267 97.6716 29.076C97.6716 27.1253 98.1022 25.4153 98.9636 23.946C99.8249 22.4513 100.978 21.286 102.422 20.45C103.891 19.614 105.538 19.196 107.362 19.196C109.16 19.196 110.782 19.614 112.226 20.45C113.695 21.286 114.848 22.4513 115.684 23.946C116.545 25.4153 116.976 27.1253 116.976 29.076C116.976 31.0267 116.545 32.7493 115.684 34.244C114.848 35.7133 113.695 36.866 112.226 37.702C110.756 38.538 109.122 38.956 107.324 38.956ZM107.324 34.738C108.59 34.738 109.692 34.2693 110.63 33.332C111.567 32.3693 112.036 30.9507 112.036 29.076C112.036 27.2013 111.567 25.7953 110.63 24.858C109.692 23.8953 108.603 23.414 107.362 23.414C106.07 23.414 104.955 23.8953 104.018 24.858C103.106 25.7953 102.65 27.2013 102.65 29.076C102.65 30.9507 103.106 32.3693 104.018 33.332C104.955 34.2693 106.057 34.738 107.324 34.738ZM130.558 38.956C128.633 38.956 126.936 38.538 125.466 37.702C123.997 36.866 122.832 35.7007 121.97 34.206C121.134 32.7113 120.716 31.0013 120.716 29.076C120.716 27.1507 121.134 25.4407 121.97 23.946C122.832 22.4513 123.997 21.286 125.466 20.45C126.936 19.614 128.633 19.196 130.558 19.196C132.965 19.196 134.992 19.8293 136.638 21.096C138.285 22.3373 139.336 24.06 139.792 26.264H134.662C134.409 25.352 133.902 24.6427 133.142 24.136C132.408 23.604 131.534 23.338 130.52 23.338C129.178 23.338 128.038 23.8447 127.1 24.858C126.163 25.8713 125.694 27.2773 125.694 29.076C125.694 30.8747 126.163 32.2807 127.1 33.294C128.038 34.3073 129.178 34.814 130.52 34.814C131.534 34.814 132.408 34.5607 133.142 34.054C133.902 33.5473 134.409 32.8253 134.662 31.888H139.792C139.336 34.016 138.285 35.726 136.638 37.018C134.992 38.31 132.965 38.956 130.558 38.956ZM144.11 38.5V11.14H148.974V27.29L155.662 19.652H161.438L153.724 28.24L162.692 38.5H156.612L148.974 29.038V38.5H144.11ZM165.707 38.5V11.14H170.571V38.5H165.707ZM177.897 46.86L182.267 37.246H181.127L173.793 19.652H179.075L184.357 32.914L189.867 19.652H195.035L183.065 46.86H177.897Z" fill="#f472b6"/>
<mask id="mask0_730_208" style="mask-type:alpha" maskUnits="userSpaceOnUse" x="-1" y="0" width="50" height="53">
<path d="M19.4473 1.41118C22.2643 -0.215184 25.7349 -0.215187 28.5519 1.41118L43.4509 10.0131C46.2678 11.6395 48.0031 14.6451 48.0031 17.8979V35.1017C48.0031 38.3545 46.2678 41.3601 43.4509 42.9865L28.5519 51.5884C25.7349 53.2148 22.2643 53.2148 19.4473 51.5884L4.54836 42.9865C1.73141 41.3601 -0.00390625 38.3545 -0.00390625 35.1017V17.8979C-0.00390625 14.6451 1.73141 11.6395 4.54836 10.0131L19.4473 1.41118Z" fill="#C4C4C4"/>
</mask>
<g mask="url(#mask0_730_208)">
<rect width="30.3817" height="30.3817" transform="matrix(0.866025 0.5 -0.866025 0.5 24 -1.66895)" fill="#f472b6"/>
<rect width="27.9554" height="27.9554" transform="matrix(0.866025 0.5 -2.20305e-08 1 -0.210938 13.7417)" fill="#f9a8d4"/>
<rect width="27.9554" height="27.9554" transform="matrix(0.866025 -0.5 2.20305e-08 1 24 27.7231)" fill="#fbcfe8"/>
</g>
</svg>
