<svg width="60" height="60" viewBox="0 0 60 60" fill="none" xmlns="http://www.w3.org/2000/svg">
<path d="M33.5 29.9999L38.2389 35.4166L44.6111 39.4888L45.7222 30.0333L44.6111 20.7888L38.1167 24.3666L33.5 29.9999Z" fill="#00832D"/>
<path d="M6 38.611V46.6666C6 48.5082 7.49167 49.9999 9.33333 49.9999H17.3889L19.0556 43.911L17.3889 38.611L11.8611 36.9443L6 38.611Z" fill="#0066DA"/>
<path d="M17.3889 10L6 21.3889L11.8611 23.0556L17.3889 21.3889L19.0278 16.1611L17.3889 10Z" fill="#E94235"/>
<path d="M17.3889 21.3889H6V38.6111H17.3889V21.3889Z" fill="#2684FC"/>
<path d="M51.8889 14.8223L44.6111 20.7889V39.4889L51.9223 45.4834C53.0167 46.3389 54.6167 45.5584 54.6167 44.1667V16.1112C54.6167 14.7028 52.9806 13.9306 51.8889 14.8223ZM33.5 30.0001V38.6112H17.3889V50.0001H41.2778C43.1195 50.0001 44.6111 48.5084 44.6111 46.6667V39.4889L33.5 30.0001Z" fill="#00AC47"/>
<path d="M41.2778 10H17.3889V21.3889H33.5V30L44.6111 20.7944V13.3333C44.6111 11.4917 43.1195 10 41.2778 10Z" fill="#FFBA00"/>
</svg>
