<svg width="60" height="60" viewBox="0 0 60 60" fill="none" xmlns="http://www.w3.org/2000/svg">
<g clip-path="url(#clip0_261_549)">
<path d="M14.322 33.7697L27.2693 20.8223C28.9477 19.1706 29.9867 16.8529 29.9867 14.322C29.9867 11.8178 28.9743 9.52672 27.3492 7.875L14.4019 20.8223C12.7236 22.474 11.6846 24.7918 11.6846 27.3226C11.6846 29.8535 12.6969 32.1179 14.322 33.7697ZM45.678 26.2037L32.7306 39.1511C31.0523 40.8028 30.0133 43.1205 30.0133 45.6514C30.0133 48.1556 31.0256 50.4467 32.6507 52.0984L45.5981 39.1511C47.2764 37.4993 48.3154 35.1816 48.3154 32.6508C48.3154 30.1199 47.3031 27.8554 45.678 26.2037ZM45.5981 20.849C47.2764 19.1973 48.3154 16.8795 48.3154 14.3487C48.3154 11.8444 47.3031 9.55336 45.678 7.90164L14.4019 39.1511C12.7236 40.8294 11.6846 43.1205 11.6846 45.678C11.6846 48.1822 12.6969 50.4733 14.322 52.125L45.5981 20.849Z" fill="#1292EE"/>
</g>
<defs>
<clipPath id="clip0_261_549">
<rect width="60" height="60" fill="white"/>
</clipPath>
</defs>
</svg>
