<svg width="60" height="60" viewBox="0 0 60 60" fill="none" xmlns="http://www.w3.org/2000/svg">
<g clip-path="url(#clip0_261_514)">
<mask id="mask0_261_514" style="mask-type:alpha" maskUnits="userSpaceOnUse" x="0" y="0" width="60" height="60">
<path d="M60 0H0V60H60V0Z" fill="white"/>
</mask>
<g mask="url(#mask0_261_514)">
<path d="M42.8334 31.7429C42.8265 32.3823 42.3061 32.897 41.6667 32.897C41.0272 32.897 40.5069 32.3823 40.5 31.7429V21.25C40.5069 20.6106 41.0272 20.0959 41.6667 20.0959C42.3061 20.0959 42.8265 20.6106 42.8334 21.25V31.7429ZM42.4262 39.0454C42.2459 39.1998 37.9241 42.8264 30 42.8264C22.0761 42.8264 17.7544 39.1997 17.574 39.0453C17.0849 38.6259 17.0283 37.8894 17.4476 37.4002C17.8659 36.9118 18.6006 36.8541 19.09 37.2714C19.1585 37.3288 23.0178 40.4929 30.0001 40.4929C37.0701 40.4929 40.8697 37.306 40.9073 37.2738C41.3955 36.8545 42.1334 36.9109 42.5524 37.4003C42.9718 37.8895 42.9153 38.626 42.4262 39.0454ZM17.1666 21.25C17.1735 20.6106 17.6939 20.0959 18.3333 20.0959C18.9728 20.0959 19.4931 20.6106 19.5 21.25V31.7429C19.4931 32.3823 18.9728 32.897 18.3333 32.897C17.6939 32.897 17.1735 32.3823 17.1666 31.7429V21.25ZM23.0001 18.9166C23.0099 18.2793 23.5293 17.7677 24.1668 17.7677C24.8042 17.7677 25.3236 18.2793 25.3334 18.9166V34.5027C25.3236 35.14 24.8042 35.6516 24.1668 35.6516C23.5293 35.6516 23.0099 35.14 23.0001 34.5027V18.9168V18.9166ZM28.8334 18.3263C28.8333 18.0169 28.9562 17.7201 29.175 17.5013C29.3938 17.2825 29.6906 17.1596 30 17.1596C30.3094 17.1596 30.6062 17.2825 30.8251 17.5013C31.0439 17.7201 31.1668 18.0168 31.1668 18.3263V35.2429C31.1598 35.8823 30.6395 36.397 30.0001 36.397C29.3606 36.397 28.8403 35.8823 28.8334 35.2429V18.3263ZM34.6668 18.9166C34.6765 18.2793 35.196 17.7677 35.8334 17.7677C36.4708 17.7677 36.9902 18.2793 37 18.9166V34.5027C36.9902 35.14 36.4708 35.6516 35.8334 35.6516C35.196 35.6516 34.6765 35.14 34.6668 34.5027V18.9168V18.9166ZM43.125 12.5H16.875C14.4588 12.5 12.5 14.4588 12.5 16.875V43.125C12.5 45.5411 14.4588 47.5 16.875 47.5H43.125C45.5412 47.5 47.5 45.5411 47.5 43.125V16.875C47.5 14.4588 45.5412 12.5 43.125 12.5Z" fill="#1F8DED"/>
</g>
</g>
<defs>
<clipPath id="clip0_261_514">
<rect width="60" height="60" fill="white"/>
</clipPath>
</defs>
</svg>
