<svg width="60" height="60" viewBox="0 0 60 60" fill="none" xmlns="http://www.w3.org/2000/svg">
<g clip-path="url(#clip0_261_615)">
<path d="M41.3631 23.186H55.5698C56.912 23.186 58 24.2741 58 25.6163V38.5566C58 43.4895 54.0011 47.4884 49.0683 47.4884H49.026C44.0932 47.489 40.0937 43.4907 40.093 38.5579C40.093 38.5575 40.093 38.557 40.093 38.5566V24.4562C40.093 23.7547 40.6617 23.186 41.3631 23.186Z" fill="#5059C9"/>
<path d="M50.965 20.6278C54.1439 20.6278 56.7209 18.0509 56.7209 14.872C56.7209 11.6932 54.1439 9.11621 50.965 9.11621C47.7862 9.11621 45.2092 11.6932 45.2092 14.872C45.2092 18.0509 47.7862 20.6278 50.965 20.6278Z" fill="#5059C9"/>
<path d="M33.0581 20.6279C37.6498 20.6279 41.3721 16.9056 41.3721 12.314C41.3721 7.72229 37.6498 4 33.0581 4C28.4664 4 24.7441 7.72229 24.7441 12.314C24.7441 16.9056 28.4664 20.6279 33.0581 20.6279Z" fill="#7B83EB"/>
<path d="M44.144 23.186H20.6935C19.3673 23.2189 18.3182 24.3195 18.349 25.6457V40.4049C18.1638 48.3636 24.4603 54.968 32.4187 55.1628C40.3772 54.968 46.6737 48.3636 46.4885 40.4049V25.6457C46.5192 24.3195 45.4702 23.2189 44.144 23.186Z" fill="#7B83EB"/>
<path opacity="0.1" d="M33.6977 23.186V43.8686C33.6913 44.817 33.1166 45.6691 32.2395 46.0302C31.9603 46.1483 31.6602 46.2092 31.357 46.2093H19.4744C19.3081 45.7872 19.1546 45.3651 19.0267 44.9302C18.579 43.4625 18.3505 41.9368 18.3488 40.4023V25.6418C18.3181 24.3177 19.3654 23.2189 20.6895 23.186H33.6977Z" fill="black"/>
<path opacity="0.2" d="M32.4186 23.186V45.1477C32.4186 45.4509 32.3577 45.751 32.2395 46.0302C31.8784 46.9072 31.0264 47.482 30.0779 47.4884H20.0756C19.8581 47.0663 19.6535 46.6442 19.4744 46.2093C19.2953 45.7744 19.1546 45.3651 19.0267 44.9302C18.579 43.4626 18.3505 41.9368 18.3488 40.4023V25.6418C18.3181 24.3177 19.3654 23.2189 20.6895 23.186H32.4186Z" fill="black"/>
<path opacity="0.2" d="M32.4186 23.186V42.5895C32.4088 43.8782 31.3666 44.9205 30.0779 44.9302H19.0267C18.579 43.4626 18.3505 41.9368 18.3488 40.4023V25.6419C18.3181 24.3177 19.3654 23.2189 20.6895 23.186H32.4186Z" fill="black"/>
<path opacity="0.2" d="M31.1395 23.186V42.5895C31.1297 43.8782 30.0875 44.9205 28.7988 44.9302H19.0267C18.579 43.4626 18.3505 41.9368 18.3488 40.4023V25.6419C18.3181 24.3177 19.3654 23.2189 20.6895 23.186H31.1395Z" fill="black"/>
<path opacity="0.1" d="M33.6976 16.5733V20.6024C33.4802 20.6152 33.2755 20.628 33.0581 20.628C32.8406 20.628 32.636 20.6152 32.4186 20.6024C31.9868 20.5738 31.5586 20.5053 31.1395 20.3978C28.5494 19.7844 26.4095 17.9679 25.3837 15.5117C25.2072 15.0993 25.0701 14.671 24.9744 14.2327H31.3569C32.6476 14.2376 33.6927 15.2826 33.6976 16.5733Z" fill="black"/>
<path opacity="0.2" d="M32.4187 17.8524V20.6024C31.9869 20.5738 31.5587 20.5052 31.1396 20.3978C28.5495 19.7844 26.4096 17.9679 25.3838 15.5117H30.078C31.3687 15.5166 32.4138 16.5617 32.4187 17.8524Z" fill="black"/>
<path opacity="0.2" d="M32.4187 17.8524V20.6024C31.9869 20.5738 31.5587 20.5052 31.1396 20.3978C28.5495 19.7844 26.4096 17.9679 25.3838 15.5117H30.078C31.3687 15.5166 32.4138 16.5617 32.4187 17.8524Z" fill="black"/>
<path opacity="0.2" d="M31.1396 17.8524V20.3978C28.5495 19.7844 26.4096 17.9679 25.3838 15.5117H28.7989C30.0896 15.5166 31.1347 16.5617 31.1396 17.8524Z" fill="black"/>
<path d="M5.34452 15.5117H28.795C30.0898 15.5117 31.1395 16.5614 31.1395 17.8562V41.3067C31.1395 42.6016 30.0898 43.6512 28.795 43.6512H5.34452C4.04967 43.6512 3 42.6015 3 41.3067V17.8562C3 16.5614 4.04969 15.5117 5.34452 15.5117Z" fill="url(#paint0_linear_261_615)"/>
<path d="M23.2401 24.437H18.5523V37.2021H15.5657V24.437H10.8997V21.9607H23.2401V24.437Z" fill="white"/>
</g>
<defs>
<linearGradient id="paint0_linear_261_615" x1="7.88841" y1="13.6797" x2="26.2511" y2="45.4832" gradientUnits="userSpaceOnUse">
<stop stop-color="#5A62C3"/>
<stop offset="0.5" stop-color="#4D55BD"/>
<stop offset="1" stop-color="#3940AB"/>
</linearGradient>
<clipPath id="clip0_261_615">
<rect width="55" height="51.1628" fill="white" transform="translate(3 4)"/>
</clipPath>
</defs>
</svg>
