<svg width="60" height="60" viewBox="0 0 60 60" fill="none" xmlns="http://www.w3.org/2000/svg">
<g clip-path="url(#clip0_261_538)">
<path d="M7.30696 47.9437C6.00152 47.9416 4.72041 47.5904 3.59645 46.9264C2.47249 46.2624 1.54661 45.3098 0.914826 44.1674C0.283038 43.0251 -0.0316587 41.7345 0.00336755 40.4295C0.0383938 39.1246 0.42187 37.8527 1.11403 36.7459L14.2789 15.7218C15.3087 14.0773 16.9496 12.9093 18.8407 12.4747C19.777 12.2595 20.7465 12.2308 21.694 12.3903C22.6414 12.5499 23.5481 12.8944 24.3623 13.4043C25.1766 13.9142 25.8824 14.5796 26.4396 15.3623C26.9967 16.145 27.3942 17.0297 27.6094 17.9661C27.8246 18.9024 27.8533 19.872 27.6938 20.8194C27.5343 21.7668 27.1897 22.6735 26.6798 23.4878L13.5119 44.5119C12.8539 45.5635 11.939 46.4303 10.8535 47.0307C9.76796 47.631 8.54747 47.9452 7.30696 47.9437V47.9437Z" fill="#FF3D57"/>
<path d="M29.9943 47.9437C28.6878 47.9437 27.4052 47.5941 26.2795 46.9309C25.1539 46.2678 24.2263 45.3154 23.593 44.1727C22.9598 43.0299 22.6441 41.7385 22.6786 40.4325C22.7131 39.1265 23.0966 37.8535 23.7893 36.7458L36.9632 15.7218C37.4517 14.8646 38.1085 14.1151 38.8941 13.5184C39.6797 12.9216 40.578 12.49 41.5348 12.2494C42.4915 12.0088 43.4871 11.9643 44.4616 12.1184C45.436 12.2726 46.3692 12.6223 47.205 13.1464C48.0408 13.6706 48.7619 14.3584 49.325 15.1686C49.8881 15.9787 50.2814 16.8943 50.4815 17.8604C50.6815 18.8265 50.684 19.823 50.4889 20.7901C50.2938 21.7572 49.905 22.6748 49.3461 23.4877L36.1962 44.5118C35.5382 45.5634 34.6233 46.4302 33.5378 47.0306C32.4523 47.631 31.2318 47.9452 29.9913 47.9437H29.9943Z" fill="#FFCB00"/>
<path d="M52.6757 47.9406C56.7222 47.9406 60.0026 44.7424 60.0026 40.7972C60.0026 36.852 56.7222 33.6538 52.6757 33.6538C48.6292 33.6538 45.3489 36.852 45.3489 40.7972C45.3489 44.7424 48.6292 47.9406 52.6757 47.9406Z" fill="#00D647"/>
</g>
<defs>
<clipPath id="clip0_261_538">
<rect width="60" height="60" fill="white"/>
</clipPath>
</defs>
</svg>
