<svg width="60" height="60" viewBox="0 0 60 60" fill="none" xmlns="http://www.w3.org/2000/svg">
<path d="M7.30913 5.37267L37.7421 3.12503C41.4802 2.8042 42.4409 3.02054 44.7912 4.72918L54.5059 11.5729C56.1082 12.7499 56.6417 13.0708 56.6417 14.3522V51.8856C56.6417 54.2378 55.7874 55.6293 52.7973 55.8419L17.4565 57.9814C15.2125 58.0877 14.1437 57.7669 12.9686 56.2691L5.81498 46.9669C4.53166 45.2545 4 43.9731 4 42.4752V9.11263C4 7.18949 4.85432 5.58534 7.30913 5.37267Z" fill="white"/>
<path d="M37.7421 3.12503L7.30913 5.37267C4.85432 5.58534 4 7.18949 4 9.11263V42.4752C4 43.9731 4.53166 45.2545 5.81498 46.9669L12.9686 56.2691C14.1437 57.7669 15.2125 58.0877 17.4565 57.9814L52.7973 55.8419C55.7856 55.6293 56.6417 54.2378 56.6417 51.8856V14.3522C56.6417 13.1368 56.1614 12.7866 54.7479 11.7489C54.6666 11.6903 54.5853 11.6317 54.5041 11.5729L44.7912 4.72918C42.4409 3.02054 41.4802 2.8042 37.7421 3.12503ZM18.2558 13.7381C15.3702 13.9324 14.7157 13.9764 13.0767 12.6436L8.90961 9.32896C8.48611 8.89997 8.69878 8.36464 9.76577 8.25831L39.0218 6.12067C41.4784 5.90617 42.7581 6.76233 43.7187 7.51032L48.7365 11.1458C48.951 11.2539 49.4845 11.8938 48.8428 11.8938L18.6298 13.7124L18.2558 13.7381ZM14.8917 51.5648V19.7018C14.8917 18.3104 15.3189 17.6687 16.5985 17.5605L51.2995 15.5292C52.4764 15.4229 53.0081 16.1709 53.0081 17.5605V49.2108C53.0081 50.6023 52.7936 51.7793 50.8723 51.8856L17.6655 53.8106C15.7442 53.9169 14.8917 53.2771 14.8917 51.5648ZM47.6713 21.4105C47.884 22.373 47.6713 23.3355 46.7088 23.4455L45.1084 23.7626V47.2877C43.7187 48.0357 42.4391 48.4628 41.3702 48.4628C39.6616 48.4628 39.2344 47.9275 37.9548 46.3252L27.4884 29.8584V45.7899L30.7994 46.5397C30.7994 46.5397 30.7994 48.4647 28.1282 48.4647L20.7638 48.8918C20.5493 48.4628 20.7638 47.394 21.51 47.1814L23.4331 46.6479V25.5831L20.7638 25.3668C20.5493 24.4043 21.0828 23.0146 22.5788 22.9065L30.4804 22.3748L41.3702 39.0543V24.298L38.5946 23.979C38.3801 22.8001 39.2344 21.944 40.3014 21.8395L47.6713 21.4105Z" fill="black"/>
</svg>
