<svg width="60" height="60" viewBox="0 0 60 60" fill="none" xmlns="http://www.w3.org/2000/svg">
<g clip-path="url(#clip0_261_638)">
<path d="M59.1854 35.568C59.385 35.5394 59.5276 36.1098 59.5276 36.5376C59.5276 37.5928 58.9004 38.3058 58.1306 38.3628L45.1873 39.2754L19.4434 41.2432C19.0157 41.2717 18.6166 41.4713 18.3315 41.785L11.9739 48.544C11.4893 49.0288 10.691 48.7721 10.691 48.1162V42.3839C10.691 42.1273 10.4914 41.9276 10.2064 41.9276L1.56802 42.5836C0.627206 42.6406 0.570187 42.9543 0.342112 42.9828C0.142547 42.9828 0 42.441 0 41.9847C0 40.9295 0.627206 40.2165 1.39696 40.1595L7.44094 39.7602L12.5726 39.3609C12.8292 39.3324 13.0573 39.5321 13.0573 39.7887V44.038L17.3337 39.475C17.6188 39.1898 18.0179 38.9902 18.4171 38.9617L55.9069 36.1098L57.9595 35.9672C58.9004 35.9102 58.9574 35.5965 59.1854 35.568ZM47.1799 11.0135C48.2691 10.8986 48.9857 11.5305 48.9857 12.3347V22.7888C50.0749 21.2379 51.3934 19.8019 52.9126 19.687C54.9763 19.5147 55.8936 21.1805 55.8936 23.076C55.8936 25.6608 54.0304 27.7286 52.6833 28.82C53.0272 30.256 53.7438 31.5484 55.0623 31.4335C56.6101 31.3187 57.728 29.1072 58.0433 27.6138C58.4446 25.5172 60.2791 26.9532 59.9638 28.0446C59.3618 29.9114 57.6994 33.444 54.661 33.6737C52.024 33.9035 50.2755 31.0027 50.2755 28.7913C50.2755 28.4501 50.6158 28.0776 51.0717 27.6202L51.1558 27.5361C52.0798 26.6144 53.3998 25.3506 53.3998 23.3345C53.3998 22.5016 52.9699 21.9559 52.3393 22.0133C51.5367 22.0708 50.0176 23.277 48.9857 26.9245L48.9857 32.8517C48.9857 32.8604 48.9856 32.8692 48.9856 32.8779L48.9851 32.9306C48.9849 32.9482 48.9846 32.9659 48.9843 32.9836L48.9829 33.0367C48.9655 33.5863 48.8454 34.1482 48.0398 34.2194C47.3805 34.2768 46.4346 34.1332 46.4346 32.8983C45.7181 33.8173 44.7435 34.4779 43.4537 34.5928C41.8772 34.7076 39.9854 33.9896 39.9854 31.0315C39.9854 28.8775 40.7306 27.2404 41.7912 24.2535L38.7529 23.6791C38.7242 25.0002 38.5236 27.9297 37.9216 29.9401C37.9216 29.9688 37.893 29.9975 37.893 30.0263C37.291 32.2664 35.9439 35.1672 33.1635 35.3969C31.9883 35.4831 31.0998 34.9948 30.5838 34.2194C29.8959 35.0523 28.95 35.7128 27.6888 35.8277C26.1697 35.9426 25.0804 35.282 24.4212 34.162C23.5326 35.3108 22.3574 36.2585 20.8383 36.3734C18.2586 36.5744 16.8827 34.88 16.8827 32.2377V20.3763C16.1948 20.9794 15.4209 21.5251 14.8476 21.8123C14.9909 22.7313 15.0483 23.6504 15.0483 24.4546C15.0483 32.9844 11.3507 37.1201 7.45247 37.4361C2.55104 37.8094 0 33.0706 0 27.0681C0 15.6375 6.76455 12.4783 7.05119 12.3634C7.16584 12.3347 7.28049 12.2772 7.42381 12.2772C8.16906 12.2198 8.59901 13.1963 8.59901 13.943C8.59901 14.3738 8.48436 14.7184 8.16906 14.7471C8.11173 14.7471 8.05441 14.7471 7.99708 14.7184C6.82188 15.4651 2.69436 17.9064 2.69436 26.5224C2.69436 32.6111 5.18807 35.1097 7.56713 34.9087C10.3475 34.7076 12.4399 30.974 12.4686 24.6843C12.4686 24.0525 12.4112 23.3345 12.3539 22.6452L11.7233 22.7026C8.91431 22.9037 6.67856 21.4389 6.67856 18.8541C6.67856 17.1022 7.91109 15.5513 9.71688 15.4077C12.1533 15.2067 13.5578 17.0448 14.303 19.3424C15.2202 18.9116 16.3381 17.8202 16.8827 17.2458V16.9586C16.8827 14.4312 18.2586 12.5357 19.9497 12.3921C22.902 12.1623 22.9307 15.6662 22.9307 17.5617C22.9307 22.5016 19.8637 29.538 19.4338 29.9688V31.9218C19.4338 33.2716 19.9784 34.1907 21.2109 34.1045C22.3001 34.0184 23.1887 32.8983 23.7333 31.7207C23.7046 31.491 23.7046 31.2899 23.7046 31.0602C23.7046 25.4598 27.6028 21.7261 31.673 21.3815C32.5902 21.3241 33.2208 21.8123 33.2208 22.6739C33.2208 23.2483 33.1348 23.4493 32.7909 23.4781C32.4756 23.4781 32.1603 23.4493 31.8163 23.4781C29.2653 23.6791 26.2843 26.0916 26.2843 30.9453C26.2843 32.6972 27.0296 33.645 28.2047 33.5588C29.122 33.5014 29.7239 32.6398 30.0965 31.6633V26.4937C30.0965 25.8618 29.9532 25.6608 29.9532 25.431C29.9532 25.1151 30.3545 24.8279 30.8131 24.7992C31.9023 24.6843 32.6189 25.3162 32.6189 26.1203V31.692C32.6189 32.4387 32.9629 33.2142 33.7654 33.1568C35.084 33.0419 35.6859 30.8304 36.0012 29.337C36.0298 29.3083 36.0298 29.2795 36.0298 29.2508V29.1647C36.4025 27.7861 36.5458 25.0002 36.5745 23.277C35.7432 22.8749 35.1413 22.2144 35.1413 21.2379C35.1413 20.3189 35.9725 19.6296 36.8324 19.5721C37.635 19.5147 38.5809 19.8306 38.9535 21.1805C39.2476 21.2241 39.5613 21.275 39.8767 21.3289L40.0261 21.3546L40.1256 21.3719C40.2085 21.3864 40.2911 21.401 40.3732 21.4157L40.4714 21.4333C41.5976 21.6359 42.5938 21.841 42.5938 21.841C43.4823 22.0133 44.3422 22.8175 44.1989 23.5929C44.1989 23.995 42.5651 27.2978 42.5651 30.6581C42.5651 31.5771 42.995 32.4387 43.9123 32.3526C45.4601 32.2377 46.0047 30.0263 46.32 28.5328C46.3487 28.3605 46.406 28.2169 46.4633 28.0733V12.7367C46.4633 11.7603 46.1194 11.7028 46.1194 11.4731C46.1194 11.2433 46.7213 11.0422 47.1799 11.0135ZM20.8669 17.7915C20.8669 15.58 20.4943 14.6035 19.9497 14.6323C19.5771 14.661 19.4338 15.4651 19.4338 16.0108H19.4624V25.6034C20.1503 24.1386 20.8669 19.6296 20.8669 17.7915ZM11.9526 20.3189C11.6373 18.7967 10.9494 17.7053 9.91752 17.7915C9.25827 17.8489 9.08629 18.3372 9.08629 18.7105C9.08629 19.5434 9.83153 20.5199 11.58 20.3763L11.9526 20.3189Z" fill="black"/>
</g>
<defs>
<clipPath id="clip0_261_638">
<rect width="60" height="37.8516" fill="white" transform="translate(0 11)"/>
</clipPath>
</defs>
</svg>
