<svg width="60" height="60" viewBox="0 0 60 60" fill="none" xmlns="http://www.w3.org/2000/svg">
<g clip-path="url(#clip0_261_522)">
<path d="M17.0301 35.9229C17.0301 38.5276 14.9248 40.6329 12.3201 40.6329C9.71534 40.6329 7.61084 38.5276 7.61084 35.9229C7.61084 33.3181 9.71534 31.2136 12.3201 31.2136H17.0301V35.9229V35.9229Z" fill="#E01E5A"/>
<path d="M19.385 35.9229C19.385 33.3181 21.4903 31.2136 24.095 31.2136C26.699 31.2136 28.8043 33.3181 28.8043 35.9229V47.6971C28.8043 50.3019 26.699 52.4071 24.095 52.4071C21.4903 52.4071 19.385 50.3019 19.385 47.6971V35.9229V35.9229Z" fill="#E01E5A"/>
<path d="M24.0953 17.0123C21.4905 17.0123 19.3853 14.907 19.3853 12.303C19.3853 9.69827 21.4905 7.59302 24.0953 7.59302C26.6993 7.59302 28.8045 9.69827 28.8045 12.303V17.0123H24.0953V17.0123Z" fill="#36C5F0"/>
<path d="M24.0952 19.4033C26.6992 19.4033 28.8044 21.5078 28.8044 24.1126C28.8044 26.7173 26.6992 28.8226 24.0952 28.8226H12.285C9.6802 28.8226 7.57495 26.7173 7.57495 24.1126C7.57495 21.5078 9.6802 19.4033 12.285 19.4033H24.0952V19.4033Z" fill="#36C5F0"/>
<path d="M42.9697 24.1126C42.9697 21.5078 45.075 19.4033 47.6797 19.4033C50.2845 19.4033 52.389 21.5078 52.389 24.1126C52.389 26.7173 50.2845 28.8226 47.6797 28.8226H42.9697V24.1126V24.1126Z" fill="#2EB67D"/>
<path d="M40.6148 24.1125C40.6148 26.7173 38.5096 28.8225 35.9048 28.8225C33.3008 28.8225 31.1956 26.7173 31.1956 24.1125V12.303C31.1956 9.69827 33.3008 7.59302 35.9048 7.59302C38.5096 7.59302 40.6148 9.69827 40.6148 12.303V24.1125V24.1125Z" fill="#2EB67D"/>
<path d="M35.9048 42.9878C38.5096 42.9878 40.6148 45.093 40.6148 47.697C40.6148 50.3018 38.5096 52.407 35.9048 52.407C33.3008 52.407 31.1956 50.3018 31.1956 47.697V42.9878H35.9048V42.9878Z" fill="#ECB22E"/>
<path d="M35.9048 40.6329C33.3008 40.6329 31.1956 38.5276 31.1956 35.9229C31.1956 33.3181 33.3008 31.2136 35.9048 31.2136H47.7151C50.3198 31.2136 52.4251 33.3181 52.4251 35.9229C52.4251 38.5276 50.3198 40.6329 47.7151 40.6329H35.9048V40.6329Z" fill="#ECB22E"/>
</g>
<defs>
<clipPath id="clip0_261_522">
<rect width="60" height="60" fill="white"/>
</clipPath>
</defs>
</svg>
