<svg width="60" height="60" viewBox="0 0 60 60" fill="none" xmlns="http://www.w3.org/2000/svg">
<path d="M29.8489 21L26.0044 21.7343C26.2341 22.8711 26.3284 24.0311 26.2852 25.1901V36.4212C26.2852 37.5011 26.242 38.3003 26.026 38.8186H29.2657C29.3887 38.5825 29.4691 38.3266 29.5033 38.0627C29.9785 38.6458 30.7344 39.1426 31.728 39.1426H32.2247L32.3759 39.0994L32.5487 39.0562L32.6999 39.013H32.7863L32.8511 38.9914L32.9375 38.9266H33.0023L33.0886 38.8834L33.1534 38.8618L33.2398 38.8402L33.3046 38.797L33.391 38.7538L33.4558 38.7106L33.5422 38.6674L33.607 38.6242L33.6934 38.581L33.7798 38.5378L33.8446 38.473L33.931 38.4298L33.9958 38.3651L34.1038 38.2787L34.147 38.2355L34.2334 38.1707C35.7236 36.8748 36.4148 34.7797 36.4148 32.2527C36.4148 28.0627 34.6005 25.9892 31.9871 25.9892C31.2587 25.9681 30.5491 26.2227 30.0001 26.702C30.0717 26.2449 30.1007 25.7821 30.0865 25.3197V23.3974C30.071 22.6004 29.9915 21.8059 29.8489 21.0216V21ZM31.0584 29.4233C31.9223 29.4233 32.3543 30.0281 32.3543 32.4903C32.3759 34.8229 31.9871 35.6437 31.0152 35.6437C30.8417 35.648 30.6693 35.6156 30.5093 35.5486C30.3492 35.4816 30.2051 35.3815 30.0865 35.2549V29.9849L30.1297 29.9633V29.9417V29.8985H30.1729V29.8553H30.2161V29.7905L30.2593 29.7689L30.2809 29.7257L30.3457 29.6609L30.4105 29.6393L30.4321 29.6177L30.4537 29.5961L30.4752 29.5745L30.5184 29.5529L30.54 29.5313L30.5832 29.5097L30.6264 29.4881L30.6912 29.4449L30.7344 29.4233H30.7776H30.8208H30.864L30.9072 29.3801H31.0152L31.0584 29.4233Z" fill="#80C31C"/>
<path d="M40.8207 25.9676C37.6458 25.9676 35.7019 28.4515 35.7019 32.5767C35.7019 36.6156 37.6889 39.0562 41.2743 39.0562C42.9813 39.0732 44.6292 38.4311 45.8747 37.2636L44.406 34.8662L44.3196 34.9525L44.2116 35.0173L44.1253 35.1037L44.0389 35.1685L43.9525 35.2333L43.8445 35.2981L43.7581 35.3629L43.6717 35.4277L43.5637 35.4925L43.4773 35.5357L43.3909 35.6005L43.3045 35.6437L43.1749 35.6869L43.0885 35.7301L43.0021 35.7733L42.8941 35.8165L42.8078 35.8597L42.743 35.9029H42.635L42.5486 35.9461H42.4622L42.3542 35.9893L42.2678 36.0109L42.1814 36.0325H42.0734L41.987 36.1189H41.8142H41.7062H41.4471C39.8704 36.1189 39.6328 34.6502 39.6328 33.8726H45.8963V32.8143C45.9611 28.5162 44.4708 25.946 40.8423 25.946L40.8207 25.9676ZM40.9503 28.8834C41.879 28.8834 42.203 29.7473 42.1598 31.108H39.6328V30.5465L39.676 30.4169V30.2873L39.7192 30.1793V30.0497L39.7408 29.9633L39.7624 29.8553L39.8056 29.7689L39.8272 29.6826L39.8704 29.5962L39.9352 29.5098V29.445L40 29.3802L40.0432 29.3154L40.0864 29.2506L40.1296 29.1858L40.1728 29.1426L40.2376 29.0994L40.3023 29.0562L40.3455 29.0346L40.4103 28.9914H40.4751L40.5399 28.9482L40.5831 28.9266H40.6479L40.7343 28.8834H40.8855H40.9503Z" fill="#0066CB"/>
<path d="M21.015 25.9893C17.8401 25.9893 15.8962 28.5163 15.8962 32.6415C15.8962 36.6804 17.8833 39.121 21.4686 39.121C23.1623 39.1441 24.8007 38.5182 26.0475 37.3716L24.6004 34.931L24.4924 34.9958L24.406 35.0822L24.3196 35.1469L24.2332 35.2117L24.1252 35.2765L24.0388 35.3413L23.9524 35.4061L23.866 35.4709L23.7364 35.5357L23.6716 35.5789L23.5852 35.6437L23.4773 35.6869L23.3909 35.7517L23.3045 35.7949L23.1965 35.8381L23.1101 35.8597L23.0237 35.9029L22.9157 35.9461L22.8293 35.9677L22.7429 36.0109L22.6349 36.0325L22.5485 36.0541L22.4621 36.0757L22.3757 36.1189H22.2677H22.1814L22.095 36.1621H21.987L21.9006 36.1837H21.6198C20.0647 36.1837 19.8055 34.6934 19.8055 33.9158H26.1122V32.8791C26.1122 28.5595 24.6436 25.9893 21.015 25.9893ZM21.1446 28.9266C22.0734 28.9266 22.3973 29.7906 22.3541 31.1513H19.8055V30.8705L19.8487 30.7193V30.5897V30.4601L19.8703 30.3305V30.2225L19.9351 30.1145V30.0065L19.9567 29.8986L19.9999 29.8122L20.0215 29.7258L20.0647 29.6394V29.553L20.1295 29.4882L20.1727 29.4234L20.2159 29.3586L20.2807 29.2938L20.3239 29.2506L20.3671 29.1858L20.4319 29.1426L20.4751 29.121L20.5399 29.0778L20.6047 29.0346H20.6695L20.7127 28.9914H20.7775L20.8639 28.9266H21.0798H21.1446Z" fill="#80C31C"/>
<path d="M52.2677 38.8187L51.4686 36.8749C51.2668 36.4205 51.1007 35.9512 50.9718 35.471H50.9286C50.7786 36.1915 50.5162 36.8839 50.1511 37.5228L49.5031 38.8187H44.8379L48.7256 32.2961L45.4858 26.7453L49.5895 25.8813L50.4535 27.5228C50.7527 28.1345 50.9775 28.7798 51.123 29.4451C51.1662 29.0995 51.3606 28.106 51.7062 27.3716L52.2029 26.3133H56.6738L53.2828 32.1881L57.1057 38.8187H52.2677ZM58.1209 26.4861H57.6457V27.7604H57.3865V26.4645H56.9114V26.2917H58.1209V26.4861ZM59.9999 27.7604H59.7623V26.4645L59.244 27.7604H59.1144L58.6176 26.4645V27.7604H58.38V26.2701H58.7472L59.1792 27.3284L59.6111 26.2701H59.9999V27.7604Z" fill="#0066CB"/>
<path d="M13.6501 38.8619H9.91363L9.20089 35.2766C8.92912 33.9906 8.71294 32.6935 8.55294 31.3889C8.39076 32.6945 8.14573 33.9919 7.86179 35.2766L7.10585 38.8619H3.28295L0 26.8316L3.69331 26.0757L4.47085 29.8338C5.1188 32.6416 5.22679 33.8295 5.24839 34.3046H5.26999C5.35638 33.2895 5.59397 31.7344 5.96114 29.8986L6.65228 26.4429H10.54L11.4471 30.6113C11.6415 31.5617 11.9007 32.7496 11.9871 34.2614C12.0735 33.1599 12.5054 30.7193 12.7646 29.5314L13.4558 26.4645H17.1923L13.6501 38.8619ZM35.8316 34.1967H35.8964L35.9612 34.1751L36.0476 34.1535L36.1124 34.1319L36.1772 34.1103L36.2636 34.0671L36.3284 34.0455L36.3932 34.0023L36.458 33.9591H36.5228L36.566 33.8943L36.6308 33.8295L36.6956 33.7863L36.7387 33.7431L36.8035 33.6783L36.8467 33.6351L36.9115 33.5703L36.9331 33.5271L36.9763 33.4623L37.0195 33.3975L37.0627 33.3111L37.1059 33.2679L37.1275 33.2031L37.1491 33.0951L37.1923 33.0519V32.9871L37.2355 32.8792V32.836V32.7496L37.2787 32.6848V32.512C37.2787 31.6481 36.6308 30.9137 35.7668 30.8273V30.8705C35.5044 31.9593 35.5267 33.119 35.8316 34.1967Z" fill="#80C31C"/>
<path d="M35.8316 34.1967H35.5508C35.302 34.2266 35.0497 34.2015 34.8118 34.1229C34.5738 34.0444 34.3561 33.9144 34.1741 33.7422C33.9921 33.57 33.8502 33.3598 33.7586 33.1266C33.6669 32.8934 33.6278 32.6429 33.6439 32.3928C33.6601 32.1427 33.7311 31.8993 33.8519 31.6798C33.9727 31.4603 34.1404 31.2701 34.3431 31.1227C34.5457 30.9753 34.7783 30.8744 35.0244 30.8271C35.2705 30.7798 35.5239 30.7872 35.7668 30.8489V30.8921C35.501 31.9722 35.5159 33.1023 35.81 34.1751L35.8316 34.1967Z" fill="#0066CB"/>
</svg>
