<svg width="60" height="60" viewBox="0 0 60 60" fill="none" xmlns="http://www.w3.org/2000/svg">
<path d="M22.4165 26.8848C23.9968 28.4651 23.9968 31.0256 22.4165 32.6059C20.8362 34.1862 18.2757 34.1862 16.6953 32.6059C15.115 31.0256 15.115 28.4651 16.6953 26.8848C18.2757 25.3045 20.8362 25.3045 22.4165 26.8848ZM19.5599 23.004C21.2843 23.004 23.0086 23.6641 24.3249 24.9804C26.9574 27.6129 26.9574 31.8818 24.3249 34.5183C21.6923 37.1508 17.4235 37.1508 14.787 34.5183C12.1544 31.8858 12.1544 27.6169 14.787 24.9804C16.1032 23.6641 17.8276 23.008 19.5519 23.004H19.5599ZM36.5753 26.8848C38.1556 28.4651 38.1556 31.0256 36.5753 32.6059C34.995 34.1862 32.4345 34.1862 30.8542 32.6059C29.2739 31.0256 29.2739 28.4651 30.8542 26.8848C32.4345 25.3045 34.995 25.3045 36.5753 26.8848ZM38.4837 24.9764C41.1162 27.6089 41.1162 31.8778 38.4837 34.5143C35.8512 37.1468 31.5823 37.1468 28.9498 34.5143C26.3173 31.8818 26.3173 27.6129 28.9498 24.9764C30.2661 23.6601 31.9904 23.004 33.7147 23C35.4431 23.004 37.1674 23.6601 38.4837 24.9764ZM2.69654 36.4547L3.37267 36.4867H13.4867L13.4547 35.8146C13.3627 34.7023 12.5785 33.8942 11.4663 33.8262L10.7902 33.7942H4.72094L12.8106 25.7005L12.7786 25.0284C12.7265 23.9082 11.9064 23.096 10.7902 23.04L10.114 23.004H0L0.0320059 23.6761C0.120024 24.7724 0.916183 25.6005 2.0204 25.6645L2.69654 25.6965H8.76575L0.676135 33.7862L0.708142 34.4583C0.776155 35.5785 1.57632 36.3827 2.69654 36.4547ZM48.8618 27.0448C49.0938 27.4409 49.1658 27.893 49.1898 28.3971L49.2219 29.0732V33.7942L49.2539 34.4663C49.3219 35.5705 50.13 36.3867 51.2423 36.4547L51.9144 36.4867V29.0732L51.9464 28.3971C51.9744 27.897 52.0464 27.4369 52.2785 27.0408C52.7466 26.2406 53.6147 25.7005 54.6109 25.7005C55.6071 25.7005 56.4793 26.2446 56.9474 27.0488C57.1754 27.4449 57.2475 27.905 57.2755 28.3971L57.3075 29.0692V33.7902L57.3395 34.4623C57.4075 35.5705 58.2156 36.3867 59.3279 36.4507L60 36.4827V29.0772V28.3971C60 25.4165 57.5835 23.004 54.6069 23.004C52.9946 23.004 51.5503 23.7121 50.5621 24.8284C49.5739 23.7081 48.1256 23.004 46.5173 23.004C45.3971 23.004 44.3569 23.3441 43.4967 23.9282C42.9726 23.3441 41.7964 23.004 41.1242 23.004V36.4867L41.8004 36.4547C42.9246 36.3787 43.7448 35.5865 43.7888 34.4663L43.8208 33.7902V29.0692L43.8528 28.3931C43.8808 27.885 43.9528 27.4369 44.1848 27.0368C44.6529 26.2326 45.5211 25.6965 46.5173 25.6965C47.5215 25.7005 48.3937 26.2406 48.8618 27.0448Z" fill="#2D8CFF"/>
</svg>
